<svg width="59" height="52" viewBox="0 0 59 52" fill="none" xmlns="http://www.w3.org/2000/svg">
<path d="M0.759375 17.0703L0.7125 15.9219C2.15 15.6875 3.04062 15.5625 3.38437 15.5469C3.4 15.0156 3.40781 14.2188 3.40781 13.1562C3.40781 11.75 3.37656 9.72656 3.31406 7.08594C3.25156 4.42969 3.2125 2.67188 3.19687 1.8125L0.829687 1.69531L0.665625 0.335938C1.30625 0.351562 2.29844 0.359375 3.64219 0.359375C5.01719 0.359375 6.04062 0.367188 6.7125 0.382812L6.78281 1.55469C6.51719 1.66406 6.14219 1.73437 5.65781 1.76562C5.17344 1.78125 4.86875 1.79688 4.74375 1.8125C4.79062 2.25 4.81406 3.35156 4.81406 5.11719C4.82969 6.88281 4.8375 8.83594 4.8375 10.9766C4.8375 13.1172 4.85312 14.6406 4.88437 15.5469C5.13437 15.5938 5.61094 15.6484 6.31406 15.7109C7.01719 15.7734 7.45469 15.8203 7.62656 15.8516L7.57969 17.0703C7.11094 17.0547 6.36875 17.0469 5.35312 17.0469C4.82187 17.0469 4.03281 17.0469 2.98594 17.0469C1.93906 17.0625 1.19687 17.0703 0.759375 17.0703ZM21.5906 8.07031L20.5594 8C20.2312 7.125 19.6766 6.6875 18.8953 6.6875C18.5516 6.6875 18.1844 6.76562 17.7937 6.92188C17.4187 7.07812 17.1062 7.24219 16.8562 7.41406C16.6062 7.57031 16.2781 7.80469 15.8719 8.11719C15.8719 8.33594 15.8641 9.04688 15.8484 10.25C15.8484 11.4531 15.8562 12.7891 15.8719 14.2578C15.9031 15.7266 15.9344 16.5156 15.9656 16.625C15.825 17.0938 15.5516 17.3281 15.1453 17.3281C14.8641 17.3281 14.5906 17.2188 14.325 17C14.075 16.7656 13.9187 16.4844 13.8562 16.1562C14.1531 11.1406 14.4187 7.35156 14.6531 4.78906L15.7078 5.02344L15.7781 6.59375C16.8719 5.6875 17.8094 5.23438 18.5906 5.23438C19.45 5.23438 20.1687 5.42969 20.7469 5.82031C21.3406 6.21094 21.6375 6.78125 21.6375 7.53125C21.6375 7.76562 21.6219 7.94531 21.5906 8.07031ZM27.8906 4.95312L28.9688 5.1875C29.0938 6.46875 29.2031 8.48438 29.2969 11.2344C29.3906 13.9688 29.4531 15.6641 29.4844 16.3203C29.3438 16.8047 29.0703 17.0469 28.6641 17.0469C28.3828 17.0469 28.1094 16.9375 27.8438 16.7188C27.5938 16.4844 27.4375 16.2031 27.375 15.875C27.4062 15.2344 27.4688 13.5703 27.5625 10.8828C27.6562 8.17969 27.7656 6.20312 27.8906 4.95312ZM28.2188 0.757812C28.6406 0.757812 28.9922 0.945312 29.2734 1.32031C29.5547 1.67969 29.6953 2.09375 29.6953 2.5625C29.6953 2.90625 29.6094 3.1875 29.4375 3.40625C29.2812 3.60938 29.0625 3.71094 28.7812 3.71094C28.3438 3.71094 28 3.53125 27.75 3.17188C27.5 2.8125 27.375 2.39062 27.375 1.90625C27.375 1.5625 27.4453 1.28906 27.5859 1.08594C27.7422 0.867187 27.9531 0.757812 28.2188 0.757812ZM38.0109 7.625L38.1047 16.9062C37.8703 17.0312 37.5891 17.0938 37.2609 17.0938C37.0109 17.0938 36.7297 17.0547 36.4172 16.9766C36.4641 15.9922 36.4953 14.0547 36.5109 11.1641C36.5266 8.27344 36.5891 6.13281 36.6984 4.74219L37.7531 4.97656L37.8234 6.28906C38.6516 5.41406 39.6047 4.97656 40.6828 4.97656C41.2297 4.97656 41.6672 5.01562 41.9953 5.09375C42.3234 5.17188 42.6359 5.36719 42.9328 5.67969C43.2453 5.97656 43.4797 6.375 43.6359 6.875C43.7922 7.375 43.9328 8.09375 44.0578 9.03125C44.1828 9.95312 44.2688 11.0391 44.3156 12.2891C44.3781 13.5234 44.4172 15.0859 44.4328 16.9766C44.3391 17.0078 44.1594 17.0234 43.8938 17.0234C43.3313 17.0234 42.8938 16.9531 42.5813 16.8125C42.5188 16.5625 42.4875 16.1484 42.4875 15.5703C42.4875 15.2734 42.4953 14.7188 42.5109 13.9062C42.5422 13.0781 42.5578 12.4375 42.5578 11.9844C42.5578 11.2344 42.5266 10.5781 42.4641 10.0156C42.4172 9.45312 42.3156 8.89844 42.1594 8.35156C42.0188 7.80469 41.7922 7.38281 41.4797 7.08594C41.1828 6.78906 40.8078 6.64062 40.3547 6.64062C39.8391 6.64062 39.4328 6.67969 39.1359 6.75781C38.8547 6.83594 38.6516 6.92969 38.5266 7.03906C38.4172 7.14844 38.2453 7.34375 38.0109 7.625ZM51.975 6.875L51.5062 5.67969C51.9125 5.27344 52.4281 4.95312 53.0531 4.71875C53.6781 4.46875 54.2953 4.34375 54.9047 4.34375C57.5453 4.34375 58.8656 6.625 58.8656 11.1875C58.8656 11.8125 58.8266 12.7344 58.7484 13.9531C58.6859 15.1719 58.6547 16.0859 58.6547 16.6953C58.5297 17.1797 58.2875 17.4219 57.9281 17.4219C57.6469 17.4219 57.3891 17.2812 57.1547 17C56.9203 16.7188 56.8031 16.4062 56.8031 16.0625C56.8031 15.9531 56.8109 15.875 56.8266 15.8281C55.8578 16.7656 54.8266 17.2344 53.7328 17.2344C52.9047 17.2344 52.1781 16.9375 51.5531 16.3438C50.9437 15.7344 50.6391 15 50.6391 14.1406C50.6391 12.6875 51.2016 11.375 52.3266 10.2031C53.4672 9.03125 54.7562 8.44531 56.1937 8.44531C56.2562 8.44531 56.3187 8.45312 56.3812 8.46875C56.4437 8.46875 56.5141 8.47656 56.5922 8.49219C56.6859 8.50781 56.7562 8.51562 56.8031 8.51562C56.6781 6.6875 55.9516 5.77344 54.6234 5.77344C53.8422 5.77344 52.9594 6.14062 51.975 6.875ZM56.8734 14.2109C56.9047 13.1172 56.9203 12.2891 56.9203 11.7266C56.9203 11.2578 56.9047 10.6016 56.8734 9.75781H56.6859C55.5766 9.77344 54.5609 10.1875 53.6391 11C52.7328 11.8125 52.2797 12.7969 52.2797 13.9531C52.2797 14.4531 52.4281 14.8516 52.725 15.1484C53.0375 15.4453 53.4125 15.5938 53.85 15.5938C54.5375 15.5938 55.5453 15.1328 56.8734 14.2109ZM6.56953 34.1953L7.97578 34.3359C8.21016 36.7266 8.43672 41.6484 8.65547 49.1016C9.70234 49.0391 11.0305 49.0078 12.6398 49.0078C14.2492 49.0078 15.5383 48.9844 16.507 48.9375C16.6008 49.2031 16.6633 49.5781 16.6945 50.0625C16.7414 50.5469 16.7883 50.9062 16.8352 51.1406C14.7883 51.0156 12.1789 50.9531 9.00703 50.9531H6.40547C6.48359 48.6406 6.52266 45.5469 6.52266 41.6719C6.53828 37.7969 6.55391 35.3047 6.56953 34.1953ZM29.557 39.2344L30.682 39.4453V39.6797C30.682 40.7422 30.7445 42.5391 30.8695 45.0703C31.0102 47.6016 31.1352 49.5547 31.2445 50.9297C30.932 51.0547 30.6352 51.1172 30.3539 51.1172C30.1039 51.1172 29.8227 51.0781 29.5102 51L29.3227 50.3906C28.3227 50.9531 27.3695 51.2344 26.4633 51.2344C25.7914 51.2344 25.2055 51.0781 24.7055 50.7656C24.2211 50.4531 23.8461 50.0703 23.5805 49.6172C23.3148 49.1484 23.1039 48.5781 22.9477 47.9062C22.7914 47.2188 22.6898 46.6016 22.643 46.0547C22.6117 45.4922 22.5961 44.8672 22.5961 44.1797C22.5961 42.1797 22.7211 40.3438 22.9711 38.6719L24.0258 38.9062C24.1352 39.4219 24.1898 39.9844 24.1898 40.5938C24.1898 40.9375 24.1664 41.5312 24.1195 42.375C24.0883 43.2188 24.0727 43.8594 24.0727 44.2969C24.0727 45.0625 24.1039 45.7266 24.1664 46.2891C24.2445 46.8359 24.3773 47.375 24.5648 47.9062C24.768 48.4219 25.0727 48.8203 25.4789 49.1016C25.8852 49.3828 26.393 49.5234 27.0023 49.5234C27.6898 49.5234 28.432 49.3672 29.2289 49.0547C29.2602 48.4766 29.2914 47 29.3227 44.625C29.3539 42.2344 29.432 40.4375 29.557 39.2344ZM46.4977 51L44.3414 50.9531C43.7633 50.375 42.9664 49.4453 41.9508 48.1641C40.9508 46.8672 40.318 46.0703 40.0523 45.7734V50.6016C39.9117 51.0703 39.6383 51.3047 39.232 51.3047C38.9508 51.3047 38.6773 51.1953 38.4117 50.9766C38.1617 50.7422 38.0055 50.4609 37.943 50.1328C37.9898 48.5234 38.0133 45.8516 38.0133 42.1172C38.0133 38.3828 38.0445 35.7031 38.107 34.0781L39.5367 34.3828C39.5523 35.0078 39.5758 36.2891 39.607 38.2266C39.6539 40.1641 39.693 41.6094 39.7242 42.5625L45.4195 38.3906L45.818 39.4453C44.3336 40.5234 42.5914 42.0469 40.5914 44.0156C41.0133 44.4688 41.943 45.5781 43.3805 47.3438C44.8336 49.0938 45.8727 50.3125 46.4977 51ZM52.5867 48.0703C53.0086 48.0703 53.3602 48.2578 53.6414 48.6328C53.9383 48.9922 54.0867 49.4062 54.0867 49.875C54.0867 50.2188 54.0008 50.5 53.8289 50.7188C53.6727 50.9219 53.4539 51.0234 53.1727 51.0234C52.7352 51.0234 52.3836 50.8438 52.118 50.4844C51.868 50.125 51.743 49.7031 51.743 49.2188C51.743 48.875 51.8133 48.6016 51.9539 48.3984C52.1102 48.1797 52.3211 48.0703 52.5867 48.0703Z" fill="white"/>
<path d="M0.759375 17.0703L0.159874 17.0948L0.183365 17.6703H0.759375V17.0703ZM0.7125 15.9219L0.615948 15.3297L0.0913207 15.4152L0.112999 15.9463L0.7125 15.9219ZM3.38437 15.5469L3.41162 16.1463L3.96775 16.121L3.98412 15.5645L3.38437 15.5469ZM3.31406 7.08594L2.71423 7.10005L2.71423 7.10013L3.31406 7.08594ZM3.19687 1.8125L3.79678 1.80159L3.78658 1.24096L3.22654 1.21323L3.19687 1.8125ZM0.829687 1.69531L0.23401 1.7672L0.294639 2.26956L0.80002 2.29458L0.829687 1.69531ZM0.665625 0.335938L0.680254 -0.263884L-0.0131629 -0.280797L0.0699472 0.40783L0.665625 0.335938ZM6.7125 0.382812L7.31142 0.346877L7.27836 -0.20419L6.72645 -0.217025L6.7125 0.382812ZM6.78281 1.55469L7.01126 2.10949L7.40739 1.94638L7.38174 1.51875L6.78281 1.55469ZM5.65781 1.76562L5.67716 2.36531L5.68681 2.365L5.69644 2.36438L5.65781 1.76562ZM4.74375 1.8125L4.66933 1.21713L4.08436 1.29025L4.14716 1.87642L4.74375 1.8125ZM4.81406 5.11719H4.21404L4.21409 5.1225L4.81406 5.11719ZM4.88437 15.5469L4.28473 15.5676L4.3013 16.048L4.7738 16.1366L4.88437 15.5469ZM7.62656 15.8516L8.22612 15.8746L8.24613 15.3544L7.73389 15.2612L7.62656 15.8516ZM7.57969 17.0703L7.5597 17.67L8.1563 17.6899L8.17924 17.0934L7.57969 17.0703ZM2.98594 17.0469L2.98594 16.4468L2.97698 16.4469L2.98594 17.0469ZM1.35888 17.0458L1.312 15.8974L0.112999 15.9463L0.159874 17.0948L1.35888 17.0458ZM0.809051 16.5141C2.26078 16.2774 3.11096 16.1599 3.41162 16.1463L3.35713 14.9475C2.97029 14.9651 2.03922 15.0976 0.615948 15.3297L0.809051 16.5141ZM3.98412 15.5645C4.00001 15.0241 4.00781 14.2201 4.00781 13.1562H2.80781C2.80781 14.2174 2.79999 15.0071 2.78463 15.5292L3.98412 15.5645ZM4.00781 13.1562C4.00781 11.7428 3.97643 9.71377 3.91389 7.07174L2.71423 7.10013C2.7767 9.73936 2.80781 11.7572 2.80781 13.1562H4.00781ZM3.9139 7.07182C3.85139 4.41527 3.81237 2.65909 3.79678 1.80159L2.59697 1.82341C2.61263 2.68466 2.65174 4.4441 2.71423 7.10005L3.9139 7.07182ZM3.22654 1.21323L0.859354 1.09605L0.80002 2.29458L3.16721 2.41177L3.22654 1.21323ZM1.42536 1.62342L1.2613 0.264045L0.0699472 0.40783L0.23401 1.7672L1.42536 1.62342ZM0.650995 0.935759C1.29934 0.951572 2.29763 0.959375 3.64219 0.959375V-0.240625C2.29925 -0.240625 1.31316 -0.248447 0.680254 -0.263884L0.650995 0.935759ZM3.64219 0.959375C5.01628 0.959375 6.03397 0.967195 6.69855 0.98265L6.72645 -0.217025C6.04728 -0.23282 5.01809 -0.240625 3.64219 -0.240625V0.959375ZM6.11358 0.418748L6.18389 1.59062L7.38174 1.51875L7.31142 0.346877L6.11358 0.418748ZM6.55436 0.999881C6.37675 1.07302 6.07679 1.13735 5.61918 1.16687L5.69644 2.36438C6.20758 2.3314 6.65763 2.25511 7.01126 2.10949L6.55436 0.999881ZM5.63847 1.16594C5.1637 1.18125 4.8278 1.19732 4.66933 1.21713L4.81817 2.40787C4.9097 2.39643 5.18318 2.38125 5.67716 2.36531L5.63847 1.16594ZM4.14716 1.87642C4.18985 2.27481 4.21406 3.33948 4.21406 5.11719H5.41406C5.41406 3.36364 5.3914 2.22519 5.34034 1.74858L4.14716 1.87642ZM4.21409 5.1225C4.22969 6.88603 4.2375 8.83735 4.2375 10.9766H5.4375C5.4375 8.83452 5.42968 6.8796 5.41404 5.11188L4.21409 5.1225ZM4.2375 10.9766C4.2375 13.1174 4.25309 14.65 4.28473 15.5676L5.48402 15.5262C5.45316 14.6313 5.4375 13.117 5.4375 10.9766H4.2375ZM4.7738 16.1366C5.05651 16.1896 5.56096 16.2464 6.26094 16.3086L6.36719 15.1133C5.66092 15.0505 5.21224 14.9979 4.99495 14.9572L4.7738 16.1366ZM6.26094 16.3086C6.97446 16.372 7.38045 16.4167 7.51923 16.4419L7.73389 15.2612C7.52893 15.224 7.05991 15.1749 6.36719 15.1133L6.26094 16.3086ZM7.02701 15.8285L6.98013 17.0473L8.17924 17.0934L8.22612 15.8746L7.02701 15.8285ZM7.59968 16.4706C7.12026 16.4547 6.3696 16.4469 5.35312 16.4469V17.6469C6.3679 17.6469 7.10161 17.6547 7.5597 17.67L7.59968 16.4706ZM5.35312 16.4469C5.35209 16.4469 5.35105 16.4469 5.35001 16.4469C5.34897 16.4469 5.34793 16.4469 5.34689 16.4469C5.34585 16.4469 5.3448 16.4469 5.34376 16.4469C5.34272 16.4469 5.34167 16.4469 5.34063 16.4469C5.33958 16.4469 5.33853 16.4469 5.33749 16.4469C5.33644 16.4469 5.33539 16.4469 5.33434 16.4469C5.33329 16.4469 5.33224 16.4469 5.33119 16.4469C5.33014 16.4469 5.32909 16.4469 5.32803 16.4469C5.32698 16.4469 5.32593 16.4469 5.32487 16.4469C5.32382 16.4469 5.32276 16.4469 5.3217 16.4469C5.32064 16.4469 5.31959 16.4469 5.31853 16.4469C5.31747 16.4469 5.31641 16.4469 5.31535 16.4469C5.31429 16.4469 5.31322 16.4469 5.31216 16.4469C5.3111 16.4469 5.31003 16.4469 5.30897 16.4469C5.3079 16.4469 5.30684 16.4469 5.30577 16.4469C5.3047 16.4469 5.30363 16.4469 5.30256 16.4469C5.3015 16.4469 5.30043 16.4469 5.29935 16.4469C5.29828 16.4469 5.29721 16.4469 5.29614 16.4469C5.29507 16.4469 5.29399 16.4469 5.29292 16.4469C5.29184 16.4469 5.29077 16.4469 5.28969 16.4469C5.28861 16.4469 5.28753 16.4469 5.28645 16.4469C5.28538 16.4469 5.2843 16.4469 5.28322 16.4469C5.28213 16.4469 5.28105 16.4469 5.27997 16.4469C5.27889 16.4469 5.2778 16.4469 5.27672 16.4469C5.27563 16.4469 5.27455 16.4469 5.27346 16.4469C5.27237 16.4469 5.27129 16.4469 5.2702 16.4469C5.26911 16.4469 5.26802 16.4469 5.26693 16.4469C5.26584 16.4469 5.26475 16.4469 5.26365 16.4469C5.26256 16.4469 5.26147 16.4469 5.26037 16.4469C5.25928 16.4469 5.25818 16.4469 5.25709 16.4469C5.25599 16.4469 5.25489 16.4469 5.25379 16.4469C5.25269 16.4469 5.25159 16.4469 5.25049 16.4469C5.24939 16.4469 5.24829 16.4469 5.24719 16.4469C5.24609 16.4469 5.24498 16.4469 5.24388 16.4469C5.24277 16.4469 5.24167 16.4469 5.24056 16.4469C5.23946 16.4469 5.23835 16.4469 5.23724 16.4469C5.23613 16.4469 5.23502 16.4469 5.23391 16.4469C5.2328 16.4469 5.23169 16.4469 5.23058 16.4469C5.22947 16.4469 5.22835 16.4469 5.22724 16.4469C5.22612 16.4469 5.22501 16.4469 5.22389 16.4469C5.22278 16.4469 5.22166 16.4469 5.22054 16.4469C5.21942 16.4469 5.2183 16.4469 5.21718 16.4469C5.21606 16.4469 5.21494 16.4469 5.21382 16.4469C5.2127 16.4469 5.21157 16.4469 5.21045 16.4469C5.20933 16.4469 5.2082 16.4469 5.20707 16.4469C5.20595 16.4469 5.20482 16.4469 5.20369 16.4469C5.20256 16.4469 5.20144 16.4469 5.20031 16.4469C5.19918 16.4469 5.19804 16.4469 5.19691 16.4469C5.19578 16.4469 5.19465 16.4469 5.19351 16.4469C5.19238 16.4469 5.19124 16.4469 5.19011 16.4469C5.18897 16.4469 5.18784 16.4469 5.1867 16.4469C5.18556 16.4469 5.18442 16.4469 5.18328 16.4469C5.18214 16.4469 5.181 16.4469 5.17986 16.4469C5.17872 16.4469 5.17757 16.4469 5.17643 16.4469C5.17529 16.4469 5.17414 16.4469 5.173 16.4469C5.17185 16.4469 5.1707 16.4469 5.16956 16.4469C5.16841 16.4469 5.16726 16.4469 5.16611 16.4469C5.16496 16.4469 5.16381 16.4469 5.16266 16.4469C5.16151 16.4469 5.16035 16.4469 5.1592 16.4469C5.15805 16.4469 5.15689 16.4469 5.15574 16.4469C5.15458 16.4469 5.15342 16.4469 5.15227 16.4469C5.15111 16.4469 5.14995 16.4469 5.14879 16.4469C5.14763 16.4469 5.14647 16.4469 5.14531 16.4469C5.14415 16.4469 5.14298 16.4469 5.14182 16.4469C5.14066 16.4469 5.13949 16.4469 5.13833 16.4469C5.13716 16.4469 5.136 16.4469 5.13483 16.4469C5.13366 16.4469 5.13249 16.4469 5.13132 16.4469C5.13015 16.4469 5.12898 16.4469 5.12781 16.4469C5.12664 16.4469 5.12547 16.4469 5.12429 16.4469C5.12312 16.4469 5.12195 16.4469 5.12077 16.4469C5.1196 16.4469 5.11842 16.4469 5.11724 16.4469C5.11607 16.4469 5.11489 16.4469 5.11371 16.4469C5.11253 16.4469 5.11135 16.4469 5.11017 16.4469C5.10899 16.4469 5.1078 16.4469 5.10662 16.4469C5.10544 16.4469 5.10425 16.4469 5.10307 16.4469C5.10188 16.4469 5.1007 16.4469 5.09951 16.4469C5.09832 16.4469 5.09714 16.4469 5.09595 16.4469C5.09476 16.4469 5.09357 16.4469 5.09238 16.4469C5.09119 16.4469 5.08999 16.4469 5.0888 16.4469C5.08761 16.4469 5.08641 16.4469 5.08522 16.4469C5.08402 16.4469 5.08283 16.4469 5.08163 16.4469C5.08043 16.4469 5.07924 16.4469 5.07804 16.4469C5.07684 16.4469 5.07564 16.4469 5.07444 16.4469C5.07324 16.4469 5.07203 16.4469 5.07083 16.4469C5.06963 16.4469 5.06843 16.4469 5.06722 16.4469C5.06602 16.4469 5.06481 16.4469 5.0636 16.4469C5.0624 16.4469 5.06119 16.4469 5.05998 16.4469C5.05877 16.4469 5.05756 16.4469 5.05635 16.4469C5.05514 16.4469 5.05393 16.4469 5.05272 16.4469C5.0515 16.4469 5.05029 16.4469 5.04907 16.4469C5.04786 16.4469 5.04664 16.4469 5.04543 16.4469C5.04421 16.4469 5.04299 16.4469 5.04178 16.4469C5.04056 16.4469 5.03934 16.4469 5.03812 16.4469C5.0369 16.4469 5.03567 16.4469 5.03445 16.4469C5.03323 16.4469 5.03201 16.4469 5.03078 16.4469C5.02956 16.4469 5.02833 16.4469 5.02711 16.4469C5.02588 16.4469 5.02465 16.4469 5.02342 16.4469C5.02219 16.4469 5.02097 16.4469 5.01973 16.4469C5.0185 16.4469 5.01727 16.4469 5.01604 16.4469C5.01481 16.4469 5.01358 16.4469 5.01234 16.4469C5.01111 16.4469 5.00987 16.4469 5.00864 16.4469C5.0074 16.4469 5.00616 16.4469 5.00492 16.4469C5.00369 16.4469 5.00245 16.4469 5.00121 16.4469C4.99997 16.4469 4.99872 16.4469 4.99748 16.4469C4.99624 16.4469 4.995 16.4469 4.99375 16.4469C4.99251 16.4469 4.99126 16.4469 4.99002 16.4469C4.98877 16.4469 4.98752 16.4469 4.98628 16.4469C4.98503 16.4469 4.98378 16.4469 4.98253 16.4469C4.98128 16.4469 4.98003 16.4469 4.97878 16.4469C4.97752 16.4469 4.97627 16.4469 4.97502 16.4469C4.97376 16.4469 4.97251 16.4469 4.97125 16.4469C4.97 16.4469 4.96874 16.4469 4.96748 16.4469C4.96622 16.4469 4.96496 16.4469 4.9637 16.4469C4.96245 16.4469 4.96118 16.4469 4.95992 16.4469C4.95866 16.4469 4.9574 16.4469 4.95613 16.4469C4.95487 16.4469 4.95361 16.4469 4.95234 16.4469C4.95107 16.4469 4.94981 16.4469 4.94854 16.4469C4.94727 16.4469 4.946 16.4469 4.94473 16.4469C4.94346 16.4469 4.94219 16.4469 4.94092 16.4469C4.93965 16.4469 4.93838 16.4469 4.9371 16.4469C4.93583 16.4469 4.93456 16.4469 4.93328 16.4469C4.932 16.4469 4.93073 16.4469 4.92945 16.4469C4.92817 16.4469 4.92689 16.4469 4.92561 16.4469C4.92433 16.4469 4.92305 16.4469 4.92177 16.4469C4.92049 16.4469 4.91921 16.4469 4.91793 16.4469C4.91664 16.4469 4.91536 16.4469 4.91407 16.4469C4.91279 16.4469 4.9115 16.4469 4.91021 16.4469C4.90893 16.4469 4.90764 16.4469 4.90635 16.4469C4.90506 16.4469 4.90377 16.4469 4.90248 16.4469C4.90118 16.4469 4.89989 16.4469 4.8986 16.4469C4.89731 16.4469 4.89601 16.4469 4.89472 16.4469C4.89342 16.4469 4.89212 16.4469 4.89083 16.4469C4.88953 16.4469 4.88823 16.4469 4.88693 16.4469C4.88563 16.4469 4.88433 16.4469 4.88303 16.4469C4.88173 16.4469 4.88043 16.4469 4.87913 16.4469C4.87782 16.4469 4.87652 16.4469 4.87521 16.4469C4.87391 16.4469 4.8726 16.4469 4.8713 16.4469C4.86999 16.4469 4.86868 16.4469 4.86737 16.4469C4.86606 16.4469 4.86475 16.4469 4.86344 16.4469C4.86213 16.4469 4.86082 16.4469 4.85951 16.4469C4.85819 16.4469 4.85688 16.4469 4.85556 16.4469C4.85425 16.4469 4.85293 16.4469 4.85162 16.4469C4.8503 16.4469 4.84898 16.4469 4.84766 16.4469C4.84634 16.4469 4.84502 16.4469 4.8437 16.4469C4.84238 16.4469 4.84106 16.4469 4.83974 16.4469C4.83841 16.4469 4.83709 16.4469 4.83577 16.4469C4.83444 16.4469 4.83311 16.4469 4.83179 16.4469C4.83046 16.4469 4.82913 16.4469 4.82781 16.4469C4.82648 16.4469 4.82515 16.4469 4.82382 16.4469C4.82249 16.4469 4.82115 16.4469 4.81982 16.4469C4.81849 16.4469 4.81715 16.4469 4.81582 16.4469C4.81449 16.4469 4.81315 16.4469 4.81181 16.4469C4.81048 16.4469 4.80914 16.4469 4.8078 16.4469C4.80646 16.4469 4.80512 16.4469 4.80378 16.4469C4.80244 16.4469 4.8011 16.4469 4.79976 16.4469C4.79842 16.4469 4.79707 16.4469 4.79573 16.4469C4.79438 16.4469 4.79304 16.4469 4.79169 16.4469C4.79034 16.4469 4.789 16.4469 4.78765 16.4469C4.7863 16.4469 4.78495 16.4469 4.7836 16.4469C4.78225 16.4469 4.7809 16.4469 4.77955 16.4469C4.77819 16.4469 4.77684 16.4469 4.77549 16.4469C4.77413 16.4469 4.77278 16.4469 4.77142 16.4469C4.77006 16.4469 4.76871 16.4469 4.76735 16.4469C4.76599 16.4469 4.76463 16.4469 4.76327 16.4469C4.76191 16.4469 4.76055 16.4469 4.75919 16.4469C4.75783 16.4469 4.75646 16.4469 4.7551 16.4469C4.75373 16.4469 4.75237 16.4469 4.751 16.4469C4.74964 16.4469 4.74827 16.4469 4.7469 16.4469C4.74553 16.4469 4.74417 16.4469 4.7428 16.4469C4.74143 16.4469 4.74005 16.4469 4.73868 16.4469C4.73731 16.4469 4.73594 16.4469 4.73456 16.4469C4.73319 16.4469 4.73181 16.4469 4.73044 16.4469C4.72906 16.4469 4.72769 16.4469 4.72631 16.4469C4.72493 16.4469 4.72355 16.4469 4.72217 16.4469C4.72079 16.4469 4.71941 16.4469 4.71803 16.4469C4.71665 16.4469 4.71526 16.4469 4.71388 16.4469C4.7125 16.4469 4.71111 16.4469 4.70973 16.4469C4.70834 16.4469 4.70695 16.4469 4.70557 16.4469C4.70418 16.4469 4.70279 16.4469 4.7014 16.4469C4.70001 16.4469 4.69862 16.4469 4.69723 16.4469C4.69584 16.4469 4.69444 16.4469 4.69305 16.4469C4.69166 16.4469 4.69026 16.4469 4.68887 16.4469C4.68747 16.4469 4.68607 16.4469 4.68468 16.4469C4.68328 16.4469 4.68188 16.4469 4.68048 16.4469C4.67908 16.4469 4.67768 16.4469 4.67628 16.4469C4.67488 16.4469 4.67348 16.4469 4.67207 16.4469C4.67067 16.4469 4.66926 16.4469 4.66786 16.4469C4.66645 16.4469 4.66505 16.4469 4.66364 16.4469C4.66223 16.4469 4.66082 16.4469 4.65941 16.4469C4.65801 16.4469 4.65659 16.4469 4.65518 16.4469C4.65377 16.4469 4.65236 16.4469 4.65095 16.4469C4.64953 16.4469 4.64812 16.4469 4.6467 16.4469C4.64529 16.4469 4.64387 16.4469 4.64246 16.4469C4.64104 16.4469 4.63962 16.4469 4.6382 16.4469C4.63678 16.4469 4.63536 16.4469 4.63394 16.4469C4.63252 16.4469 4.6311 16.4469 4.62967 16.4469C4.62825 16.4469 4.62683 16.4469 4.6254 16.4469C4.62398 16.4469 4.62255 16.4469 4.62112 16.4469C4.6197 16.4469 4.61827 16.4469 4.61684 16.4469C4.61541 16.4469 4.61398 16.4469 4.61255 16.4469C4.61112 16.4469 4.60969 16.4469 4.60825 16.4469C4.60682 16.4469 4.60539 16.4469 4.60395 16.4469C4.60252 16.4469 4.60108 16.4469 4.59964 16.4469C4.59821 16.4469 4.59677 16.4469 4.59533 16.4469C4.59389 16.4469 4.59245 16.4469 4.59101 16.4469C4.58957 16.4469 4.58813 16.4469 4.58668 16.4469C4.58524 16.4469 4.5838 16.4469 4.58235 16.4469C4.58091 16.4469 4.57946 16.4469 4.57802 16.4469C4.57657 16.4469 4.57512 16.4469 4.57367 16.4469C4.57222 16.4469 4.57077 16.4469 4.56932 16.4469C4.56787 16.4469 4.56642 16.4469 4.56497 16.4469C4.56352 16.4469 4.56206 16.4469 4.56061 16.4469C4.55915 16.4469 4.5577 16.4469 4.55624 16.4469C4.55479 16.4469 4.55333 16.4469 4.55187 16.4469C4.55041 16.4469 4.54895 16.4469 4.54749 16.4469C4.54603 16.4469 4.54457 16.4469 4.54311 16.4469C4.54164 16.4469 4.54018 16.4469 4.53872 16.4469C4.53725 16.4469 4.53579 16.4469 4.53432 16.4469C4.53285 16.4469 4.53139 16.4469 4.52992 16.4469C4.52845 16.4469 4.52698 16.4469 4.52551 16.4469C4.52404 16.4469 4.52257 16.4469 4.5211 16.4469C4.51962 16.4469 4.51815 16.4469 4.51668 16.4469C4.5152 16.4469 4.51373 16.4469 4.51225 16.4469C4.51077 16.4469 4.5093 16.4469 4.50782 16.4469C4.50634 16.4469 4.50486 16.4469 4.50338 16.4469C4.5019 16.4469 4.50042 16.4469 4.49894 16.4469C4.49746 16.4469 4.49597 16.4469 4.49449 16.4469C4.493 16.4469 4.49152 16.4469 4.49003 16.4469C4.48855 16.4469 4.48706 16.4469 4.48557 16.4469C4.48408 16.4469 4.48259 16.4469 4.4811 16.4469C4.47961 16.4469 4.47812 16.4469 4.47663 16.4469C4.47514 16.4469 4.47365 16.4469 4.47215 16.4469C4.47066 16.4469 4.46916 16.4469 4.46767 16.4469C4.46617 16.4469 4.46468 16.4469 4.46318 16.4469C4.46168 16.4469 4.46018 16.4469 4.45868 16.4469C4.45718 16.4469 4.45568 16.4469 4.45418 16.4469C4.45268 16.4469 4.45117 16.4469 4.44967 16.4469C4.44817 16.4469 4.44666 16.4469 4.44516 16.4469C4.44365 16.4469 4.44214 16.4469 4.44064 16.4469C4.43913 16.4469 4.43762 16.4469 4.43611 16.4469C4.4346 16.4469 4.43309 16.4469 4.43158 16.4469C4.43007 16.4469 4.42855 16.4469 4.42704 16.4469C4.42553 16.4469 4.42401 16.4469 4.4225 16.4469C4.42098 16.4469 4.41946 16.4469 4.41795 16.4469C4.41643 16.4469 4.41491 16.4469 4.41339 16.4469C4.41187 16.4469 4.41035 16.4469 4.40883 16.4469C4.40731 16.4469 4.40579 16.4469 4.40426 16.4469C4.40274 16.4469 4.40121 16.4469 4.39969 16.4469C4.39816 16.4469 4.39664 16.4469 4.39511 16.4469C4.39358 16.4469 4.39205 16.4469 4.39052 16.4469C4.389 16.4469 4.38746 16.4469 4.38593 16.4469C4.3844 16.4469 4.38287 16.4469 4.38134 16.4469C4.3798 16.4469 4.37827 16.4469 4.37673 16.4469C4.3752 16.4469 4.37366 16.4469 4.37213 16.4469C4.37059 16.4469 4.36905 16.4469 4.36751 16.4469C4.36597 16.4469 4.36443 16.4469 4.36289 16.4469C4.36135 16.4469 4.35981 16.4469 4.35826 16.4469C4.35672 16.4469 4.35518 16.4469 4.35363 16.4469C4.35209 16.4469 4.35054 16.4469 4.34899 16.4469C4.34745 16.4469 4.3459 16.4469 4.34435 16.4469C4.3428 16.4469 4.34125 16.4469 4.3397 16.4469C4.33815 16.4469 4.3366 16.4469 4.33504 16.4469C4.33349 16.4469 4.33194 16.4469 4.33038 16.4469C4.32883 16.4469 4.32727 16.4469 4.32571 16.4469C4.32416 16.4469 4.3226 16.4469 4.32104 16.4469C4.31948 16.4469 4.31792 16.4469 4.31636 16.4469C4.3148 16.4469 4.31324 16.4469 4.31168 16.4469C4.31011 16.4469 4.30855 16.4469 4.30698 16.4469C4.30542 16.4469 4.30385 16.4469 4.30229 16.4469C4.30072 16.4469 4.29915 16.4469 4.29758 16.4469C4.29602 16.4469 4.29445 16.4469 4.29288 16.4469C4.2913 16.4469 4.28973 16.4469 4.28816 16.4469C4.28659 16.4469 4.28501 16.4469 4.28344 16.4469C4.28186 16.4469 4.28029 16.4469 4.27871 16.4469C4.27714 16.4469 4.27556 16.4469 4.27398 16.4469C4.2724 16.4469 4.27082 16.4469 4.26924 16.4469C4.26766 16.4469 4.26608 16.4469 4.2645 16.4469C4.26291 16.4469 4.26133 16.4469 4.25975 16.4469C4.25816 16.4469 4.25658 16.4469 4.25499 16.4469C4.2534 16.4469 4.25182 16.4469 4.25023 16.4469C4.24864 16.4469 4.24705 16.4469 4.24546 16.4469C4.24387 16.4469 4.24228 16.4469 4.24069 16.4469C4.23909 16.4469 4.2375 16.4469 4.23591 16.4469C4.23431 16.4469 4.23272 16.4469 4.23112 16.4469C4.22953 16.4469 4.22793 16.4469 4.22633 16.4469C4.22473 16.4469 4.22313 16.4469 4.22153 16.4469C4.21993 16.4469 4.21833 16.4469 4.21673 16.4469C4.21513 16.4469 4.21352 16.4469 4.21192 16.4469C4.21032 16.4469 4.20871 16.4469 4.2071 16.4469C4.2055 16.4469 4.20389 16.4469 4.20228 16.4469C4.20068 16.4469 4.19907 16.4469 4.19746 16.4469C4.19585 16.4469 4.19424 16.4469 4.19262 16.4469C4.19101 16.4469 4.1894 16.4469 4.18778 16.4469C4.18617 16.4469 4.18456 16.4469 4.18294 16.4469C4.18132 16.4469 4.17971 16.4469 4.17809 16.4469C4.17647 16.4469 4.17485 16.4469 4.17323 16.4469C4.17161 16.4469 4.16999 16.4469 4.16837 16.4469C4.16675 16.4469 4.16513 16.4469 4.1635 16.4469C4.16188 16.4469 4.16025 16.4469 4.15863 16.4469C4.157 16.4469 4.15538 16.4469 4.15375 16.4469C4.15212 16.4469 4.15049 16.4469 4.14886 16.4469C4.14723 16.4469 4.1456 16.4469 4.14397 16.4469C4.14234 16.4469 4.14071 16.4469 4.13907 16.4469C4.13744 16.4469 4.1358 16.4469 4.13417 16.4469C4.13253 16.4469 4.1309 16.4469 4.12926 16.4469C4.12762 16.4469 4.12598 16.4469 4.12434 16.4469C4.1227 16.4469 4.12106 16.4469 4.11942 16.4469C4.11778 16.4469 4.11614 16.4469 4.11449 16.4469C4.11285 16.4469 4.11121 16.4469 4.10956 16.4469C4.10792 16.4469 4.10627 16.4469 4.10462 16.4469C4.10298 16.4469 4.10133 16.4469 4.09968 16.4469C4.09803 16.4469 4.09638 16.4469 4.09473 16.4469C4.09308 16.4469 4.09142 16.4469 4.08977 16.4469C4.08812 16.4469 4.08646 16.4469 4.08481 16.4469C4.08315 16.4469 4.0815 16.4469 4.07984 16.4469C4.07818 16.4469 4.07652 16.4469 4.07486 16.4469C4.0732 16.4469 4.07154 16.4469 4.06988 16.4469C4.06822 16.4469 4.06656 16.4469 4.0649 16.4469C4.06323 16.4469 4.06157 16.4469 4.0599 16.4469C4.05824 16.4469 4.05657 16.4469 4.05491 16.4469C4.05324 16.4469 4.05157 16.4469 4.0499 16.4469C4.04823 16.4469 4.04656 16.4469 4.04489 16.4469C4.04322 16.4469 4.04155 16.4469 4.03988 16.4469C4.0382 16.4469 4.03653 16.4469 4.03486 16.4469C4.03318 16.4469 4.0315 16.4469 4.02983 16.4469C4.02815 16.4469 4.02647 16.4469 4.02479 16.4469C4.02312 16.4469 4.02144 16.4469 4.01975 16.4469C4.01807 16.4469 4.01639 16.4469 4.01471 16.4469C4.01303 16.4469 4.01134 16.4469 4.00966 16.4469C4.00797 16.4469 4.00629 16.4469 4.0046 16.4469C4.00291 16.4469 4.00123 16.4469 3.99954 16.4469C3.99785 16.4469 3.99616 16.4469 3.99447 16.4469C3.99278 16.4469 3.99109 16.4469 3.98939 16.4469C3.9877 16.4469 3.98601 16.4469 3.98431 16.4469C3.98262 16.4469 3.98092 16.4469 3.97923 16.4469C3.97753 16.4469 3.97583 16.4469 3.97413 16.4469C3.97244 16.4469 3.97074 16.4469 3.96904 16.4469C3.96734 16.4469 3.96563 16.4469 3.96393 16.4469C3.96223 16.4469 3.96053 16.4469 3.95882 16.4469C3.95712 16.4469 3.95541 16.4469 3.95371 16.4469C3.952 16.4469 3.95029 16.4469 3.94858 16.4469C3.94687 16.4469 3.94517 16.4469 3.94346 16.4469C3.94175 16.4469 3.94003 16.4469 3.93832 16.4469C3.93661 16.4469 3.9349 16.4469 3.93318 16.4469C3.93147 16.4469 3.92975 16.4469 3.92804 16.4469C3.92632 16.4469 3.9246 16.4469 3.92288 16.4469C3.92117 16.4469 3.91945 16.4469 3.91773 16.4469C3.91601 16.4469 3.91429 16.4469 3.91256 16.4469C3.91084 16.4469 3.90912 16.4469 3.90739 16.4469C3.90567 16.4469 3.90395 16.4469 3.90222 16.4469C3.90049 16.4469 3.89877 16.4469 3.89704 16.4469C3.89531 16.4469 3.89358 16.4469 3.89185 16.4469C3.89012 16.4469 3.88839 16.4469 3.88666 16.4469C3.88493 16.4469 3.88319 16.4469 3.88146 16.4469C3.87973 16.4469 3.87799 16.4469 3.87626 16.4469C3.87452 16.4469 3.87278 16.4469 3.87104 16.4469C3.86931 16.4469 3.86757 16.4469 3.86583 16.4469C3.86409 16.4469 3.86235 16.4469 3.86061 16.4469C3.85886 16.4469 3.85712 16.4469 3.85538 16.4469C3.85363 16.4469 3.85189 16.4469 3.85014 16.4469C3.8484 16.4469 3.84665 16.4469 3.8449 16.4469C3.84316 16.4469 3.84141 16.4469 3.83966 16.4469C3.83791 16.4469 3.83616 16.4469 3.83441 16.4469C3.83265 16.4469 3.8309 16.4469 3.82915 16.4469C3.82739 16.4469 3.82564 16.4469 3.82388 16.4469C3.82213 16.4469 3.82037 16.4469 3.81861 16.4469C3.81686 16.4469 3.8151 16.4469 3.81334 16.4469C3.81158 16.4469 3.80982 16.4469 3.80806 16.4469C3.8063 16.4469 3.80453 16.4469 3.80277 16.4469C3.80101 16.4469 3.79924 16.4469 3.79748 16.4469C3.79571 16.4469 3.79395 16.4469 3.79218 16.4469C3.79041 16.4469 3.78864 16.4469 3.78687 16.4469C3.7851 16.4469 3.78333 16.4469 3.78156 16.4469C3.77979 16.4469 3.77802 16.4469 3.77625 16.4469C3.77447 16.4469 3.7727 16.4469 3.77092 16.4469C3.76915 16.4469 3.76737 16.4469 3.76559 16.4469C3.76382 16.4469 3.76204 16.4469 3.76026 16.4469C3.75848 16.4469 3.7567 16.4469 3.75492 16.4469C3.75314 16.4469 3.75136 16.4469 3.74957 16.4469C3.74779 16.4469 3.74601 16.4469 3.74422 16.4469C3.74244 16.4469 3.74065 16.4469 3.73886 16.4469C3.73708 16.4469 3.73529 16.4469 3.7335 16.4469C3.73171 16.4469 3.72992 16.4469 3.72813 16.4469C3.72634 16.4469 3.72455 16.4469 3.72275 16.4469C3.72096 16.4469 3.71917 16.4469 3.71737 16.4469C3.71558 16.4469 3.71378 16.4469 3.71198 16.4469C3.71019 16.4469 3.70839 16.4469 3.70659 16.4469C3.70479 16.4469 3.70299 16.4469 3.70119 16.4469C3.69939 16.4469 3.69759 16.4469 3.69579 16.4469C3.69398 16.4469 3.69218 16.4469 3.69037 16.4469C3.68857 16.4469 3.68676 16.4469 3.68496 16.4469C3.68315 16.4469 3.68134 16.4469 3.67953 16.4469C3.67773 16.4469 3.67592 16.4469 3.67411 16.4469C3.6723 16.4469 3.67048 16.4469 3.66867 16.4469C3.66686 16.4469 3.66505 16.4469 3.66323 16.4469C3.66142 16.4469 3.6596 16.4469 3.65778 16.4469C3.65597 16.4469 3.65415 16.4469 3.65233 16.4469C3.65051 16.4469 3.64869 16.4469 3.64687 16.4469C3.64505 16.4469 3.64323 16.4469 3.64141 16.4469C3.63959 16.4469 3.63776 16.4469 3.63594 16.4469C3.63411 16.4469 3.63229 16.4469 3.63046 16.4469C3.62864 16.4469 3.62681 16.4469 3.62498 16.4469C3.62315 16.4469 3.62132 16.4469 3.61949 16.4469C3.61766 16.4469 3.61583 16.4469 3.614 16.4469C3.61217 16.4469 3.61033 16.4469 3.6085 16.4469C3.60666 16.4469 3.60483 16.4469 3.60299 16.4469C3.60116 16.4469 3.59932 16.4469 3.59748 16.4469C3.59564 16.4469 3.5938 16.4469 3.59196 16.4469C3.59012 16.4469 3.58828 16.4469 3.58644 16.4469C3.5846 16.4469 3.58276 16.4469 3.58091 16.4469C3.57907 16.4469 3.57722 16.4469 3.57538 16.4469C3.57353 16.4469 3.57168 16.4469 3.56984 16.4469C3.56799 16.4469 3.56614 16.4469 3.56429 16.4469C3.56244 16.4469 3.56059 16.4469 3.55874 16.4469C3.55688 16.4469 3.55503 16.4469 3.55318 16.4469C3.55132 16.4469 3.54947 16.4469 3.54761 16.4469C3.54576 16.4469 3.5439 16.4469 3.54204 16.4469C3.54018 16.4469 3.53833 16.4469 3.53647 16.4469C3.53461 16.4469 3.53275 16.4469 3.53088 16.4469C3.52902 16.4469 3.52716 16.4469 3.5253 16.4469C3.52343 16.4469 3.52157 16.4469 3.5197 16.4469C3.51784 16.4469 3.51597 16.4469 3.5141 16.4469C3.51223 16.4469 3.51037 16.4469 3.5085 16.4469C3.50663 16.4469 3.50476 16.4469 3.50288 16.4469C3.50101 16.4469 3.49914 16.4469 3.49727 16.4469C3.49539 16.4469 3.49352 16.4469 3.49164 16.4469C3.48977 16.4469 3.48789 16.4469 3.48601 16.4469C3.48414 16.4469 3.48226 16.4469 3.48038 16.4469C3.4785 16.4469 3.47662 16.4469 3.47474 16.4469C3.47285 16.4469 3.47097 16.4469 3.46909 16.4469C3.46721 16.4469 3.46532 16.4469 3.46344 16.4469C3.46155 16.4469 3.45966 16.4469 3.45778 16.4469C3.45589 16.4469 3.454 16.4469 3.45211 16.4469C3.45022 16.4469 3.44833 16.4469 3.44644 16.4469C3.44455 16.4469 3.44266 16.4469 3.44076 16.4469C3.43887 16.4469 3.43698 16.4469 3.43508 16.4469C3.43319 16.4469 3.43129 16.4469 3.42939 16.4469C3.4275 16.4469 3.4256 16.4469 3.4237 16.4469C3.4218 16.4469 3.4199 16.4469 3.418 16.4469C3.4161 16.4469 3.4142 16.4469 3.41229 16.4469C3.41039 16.4469 3.40849 16.4469 3.40658 16.4469C3.40468 16.4469 3.40277 16.4469 3.40086 16.4469C3.39896 16.4469 3.39705 16.4469 3.39514 16.4469C3.39323 16.4469 3.39132 16.4469 3.38941 16.4469C3.3875 16.4469 3.38559 16.4469 3.38367 16.4469C3.38176 16.4469 3.37985 16.4469 3.37793 16.4469C3.37602 16.4469 3.3741 16.4469 3.37218 16.4469C3.37027 16.4469 3.36835 16.4469 3.36643 16.4469C3.36451 16.4469 3.36259 16.4469 3.36067 16.4469C3.35875 16.4469 3.35683 16.4469 3.35491 16.4469C3.35298 16.4469 3.35106 16.4469 3.34913 16.4469C3.34721 16.4469 3.34528 16.4469 3.34336 16.4469C3.34143 16.4469 3.3395 16.4469 3.33757 16.4469C3.33565 16.4469 3.33372 16.4469 3.33179 16.4469C3.32986 16.4469 3.32792 16.4469 3.32599 16.4469C3.32406 16.4469 3.32212 16.4469 3.32019 16.4469C3.31826 16.4469 3.31632 16.4469 3.31438 16.4469C3.31245 16.4469 3.31051 16.4469 3.30857 16.4469C3.30663 16.4469 3.30469 16.4469 3.30275 16.4469C3.30081 16.4469 3.29887 16.4469 3.29693 16.4469C3.29499 16.4469 3.29304 16.4469 3.2911 16.4469C3.28915 16.4469 3.28721 16.4469 3.28526 16.4469C3.28332 16.4469 3.28137 16.4469 3.27942 16.4469C3.27747 16.4469 3.27552 16.4469 3.27357 16.4469C3.27162 16.4469 3.26967 16.4469 3.26772 16.4469C3.26577 16.4469 3.26381 16.4469 3.26186 16.4469C3.25991 16.4469 3.25795 16.4469 3.25599 16.4469C3.25404 16.4469 3.25208 16.4469 3.25012 16.4469C3.24816 16.4469 3.24621 16.4469 3.24425 16.4469C3.24229 16.4469 3.24032 16.4469 3.23836 16.4469C3.2364 16.4469 3.23444 16.4469 3.23247 16.4469C3.23051 16.4469 3.22854 16.4469 3.22658 16.4469C3.22461 16.4469 3.22264 16.4469 3.22068 16.4469C3.21871 16.4469 3.21674 16.4469 3.21477 16.4469C3.2128 16.4469 3.21083 16.4469 3.20886 16.4469C3.20689 16.4469 3.20491 16.4469 3.20294 16.4469C3.20096 16.4469 3.19899 16.4469 3.19701 16.4469C3.19504 16.4469 3.19306 16.4469 3.19108 16.4469C3.18911 16.4469 3.18713 16.4469 3.18515 16.4469C3.18317 16.4469 3.18119 16.4469 3.1792 16.4469C3.17722 16.4469 3.17524 16.4469 3.17326 16.4469C3.17127 16.4469 3.16929 16.4469 3.1673 16.4469C3.16532 16.4469 3.16333 16.4469 3.16134 16.4469C3.15936 16.4469 3.15737 16.4469 3.15538 16.4469C3.15339 16.4469 3.1514 16.4469 3.14941 16.4469C3.14741 16.4469 3.14542 16.4469 3.14343 16.4469C3.14143 16.4469 3.13944 16.4469 3.13744 16.4469C3.13545 16.4469 3.13345 16.4469 3.13145 16.4469C3.12946 16.4469 3.12746 16.4469 3.12546 16.4469C3.12346 16.4469 3.12146 16.4469 3.11946 16.4469C3.11746 16.4469 3.11545 16.4469 3.11345 16.4469C3.11145 16.4469 3.10944 16.4469 3.10744 16.4469C3.10543 16.4469 3.10343 16.4469 3.10142 16.4469C3.09941 16.4469 3.0974 16.4469 3.09539 16.4469C3.09338 16.4469 3.09137 16.4469 3.08936 16.4469C3.08735 16.4469 3.08534 16.4469 3.08333 16.4469C3.08131 16.4469 3.0793 16.4469 3.07728 16.4469C3.07527 16.4469 3.07325 16.4469 3.07124 16.4469C3.06922 16.4469 3.0672 16.4469 3.06518 16.4469C3.06316 16.4469 3.06114 16.4469 3.05912 16.4469C3.0571 16.4469 3.05508 16.4469 3.05305 16.4469C3.05103 16.4469 3.04901 16.4469 3.04698 16.4469C3.04496 16.4469 3.04293 16.4469 3.0409 16.4469C3.03888 16.4469 3.03685 16.4469 3.03482 16.4469C3.03279 16.4469 3.03076 16.4469 3.02873 16.4469C3.0267 16.4469 3.02467 16.4469 3.02264 16.4469C3.0206 16.4469 3.01857 16.4469 3.01653 16.4469C3.0145 16.4469 3.01246 16.4469 3.01043 16.4469C3.00839 16.4469 3.00635 16.4469 3.00431 16.4469C3.00227 16.4469 3.00023 16.4469 2.99819 16.4469C2.99615 16.4469 2.99411 16.4469 2.99207 16.4469C2.99003 16.4469 2.98798 16.4469 2.98594 16.4469V17.6469C2.98798 17.6469 2.99003 17.6469 2.99207 17.6469C2.99411 17.6469 2.99615 17.6469 2.99819 17.6469C3.00023 17.6469 3.00227 17.6469 3.00431 17.6469C3.00635 17.6469 3.00839 17.6469 3.01043 17.6469C3.01246 17.6469 3.0145 17.6469 3.01653 17.6469C3.01857 17.6469 3.0206 17.6469 3.02264 17.6469C3.02467 17.6469 3.0267 17.6469 3.02873 17.6469C3.03076 17.6469 3.03279 17.6469 3.03482 17.6469C3.03685 17.6469 3.03888 17.6469 3.0409 17.6469C3.04293 17.6469 3.04496 17.6469 3.04698 17.6469C3.04901 17.6469 3.05103 17.6469 3.05305 17.6469C3.05508 17.6469 3.0571 17.6469 3.05912 17.6469C3.06114 17.6469 3.06316 17.6469 3.06518 17.6469C3.0672 17.6469 3.06922 17.6469 3.07124 17.6469C3.07325 17.6469 3.07527 17.6469 3.07728 17.6469C3.0793 17.6469 3.08131 17.6469 3.08333 17.6469C3.08534 17.6469 3.08735 17.6469 3.08936 17.6469C3.09137 17.6469 3.09338 17.6469 3.09539 17.6469C3.0974 17.6469 3.09941 17.6469 3.10142 17.6469C3.10343 17.6469 3.10543 17.6469 3.10744 17.6469C3.10944 17.6469 3.11145 17.6469 3.11345 17.6469C3.11545 17.6469 3.11746 17.6469 3.11946 17.6469C3.12146 17.6469 3.12346 17.6469 3.12546 17.6469C3.12746 17.6469 3.12946 17.6469 3.13145 17.6469C3.13345 17.6469 3.13545 17.6469 3.13744 17.6469C3.13944 17.6469 3.14143 17.6469 3.14343 17.6469C3.14542 17.6469 3.14741 17.6469 3.14941 17.6469C3.1514 17.6469 3.15339 17.6469 3.15538 17.6469C3.15737 17.6469 3.15936 17.6469 3.16134 17.6469C3.16333 17.6469 3.16532 17.6469 3.1673 17.6469C3.16929 17.6469 3.17127 17.6469 3.17326 17.6469C3.17524 17.6469 3.17722 17.6469 3.1792 17.6469C3.18119 17.6469 3.18317 17.6469 3.18515 17.6469C3.18713 17.6469 3.18911 17.6469 3.19108 17.6469C3.19306 17.6469 3.19504 17.6469 3.19701 17.6469C3.19899 17.6469 3.20096 17.6469 3.20294 17.6469C3.20491 17.6469 3.20689 17.6469 3.20886 17.6469C3.21083 17.6469 3.2128 17.6469 3.21477 17.6469C3.21674 17.6469 3.21871 17.6469 3.22068 17.6469C3.22264 17.6469 3.22461 17.6469 3.22658 17.6469C3.22854 17.6469 3.23051 17.6469 3.23247 17.6469C3.23444 17.6469 3.2364 17.6469 3.23836 17.6469C3.24032 17.6469 3.24229 17.6469 3.24425 17.6469C3.24621 17.6469 3.24816 17.6469 3.25012 17.6469C3.25208 17.6469 3.25404 17.6469 3.25599 17.6469C3.25795 17.6469 3.25991 17.6469 3.26186 17.6469C3.26381 17.6469 3.26577 17.6469 3.26772 17.6469C3.26967 17.6469 3.27162 17.6469 3.27357 17.6469C3.27552 17.6469 3.27747 17.6469 3.27942 17.6469C3.28137 17.6469 3.28332 17.6469 3.28526 17.6469C3.28721 17.6469 3.28915 17.6469 3.2911 17.6469C3.29304 17.6469 3.29499 17.6469 3.29693 17.6469C3.29887 17.6469 3.30081 17.6469 3.30275 17.6469C3.30469 17.6469 3.30663 17.6469 3.30857 17.6469C3.31051 17.6469 3.31245 17.6469 3.31438 17.6469C3.31632 17.6469 3.31826 17.6469 3.32019 17.6469C3.32212 17.6469 3.32406 17.6469 3.32599 17.6469C3.32792 17.6469 3.32986 17.6469 3.33179 17.6469C3.33372 17.6469 3.33565 17.6469 3.33757 17.6469C3.3395 17.6469 3.34143 17.6469 3.34336 17.6469C3.34528 17.6469 3.34721 17.6469 3.34913 17.6469C3.35106 17.6469 3.35298 17.6469 3.35491 17.6469C3.35683 17.6469 3.35875 17.6469 3.36067 17.6469C3.36259 17.6469 3.36451 17.6469 3.36643 17.6469C3.36835 17.6469 3.37027 17.6469 3.37218 17.6469C3.3741 17.6469 3.37602 17.6469 3.37793 17.6469C3.37985 17.6469 3.38176 17.6469 3.38367 17.6469C3.38559 17.6469 3.3875 17.6469 3.38941 17.6469C3.39132 17.6469 3.39323 17.6469 3.39514 17.6469C3.39705 17.6469 3.39896 17.6469 3.40086 17.6469C3.40277 17.6469 3.40468 17.6469 3.40658 17.6469C3.40849 17.6469 3.41039 17.6469 3.41229 17.6469C3.4142 17.6469 3.4161 17.6469 3.418 17.6469C3.4199 17.6469 3.4218 17.6469 3.4237 17.6469C3.4256 17.6469 3.4275 17.6469 3.42939 17.6469C3.43129 17.6469 3.43319 17.6469 3.43508 17.6469C3.43698 17.6469 3.43887 17.6469 3.44076 17.6469C3.44266 17.6469 3.44455 17.6469 3.44644 17.6469C3.44833 17.6469 3.45022 17.6469 3.45211 17.6469C3.454 17.6469 3.45589 17.6469 3.45778 17.6469C3.45966 17.6469 3.46155 17.6469 3.46344 17.6469C3.46532 17.6469 3.46721 17.6469 3.46909 17.6469C3.47097 17.6469 3.47285 17.6469 3.47474 17.6469C3.47662 17.6469 3.4785 17.6469 3.48038 17.6469C3.48226 17.6469 3.48414 17.6469 3.48601 17.6469C3.48789 17.6469 3.48977 17.6469 3.49164 17.6469C3.49352 17.6469 3.49539 17.6469 3.49727 17.6469C3.49914 17.6469 3.50101 17.6469 3.50288 17.6469C3.50476 17.6469 3.50663 17.6469 3.5085 17.6469C3.51037 17.6469 3.51223 17.6469 3.5141 17.6469C3.51597 17.6469 3.51784 17.6469 3.5197 17.6469C3.52157 17.6469 3.52343 17.6469 3.5253 17.6469C3.52716 17.6469 3.52902 17.6469 3.53088 17.6469C3.53275 17.6469 3.53461 17.6469 3.53647 17.6469C3.53833 17.6469 3.54018 17.6469 3.54204 17.6469C3.5439 17.6469 3.54576 17.6469 3.54761 17.6469C3.54947 17.6469 3.55132 17.6469 3.55318 17.6469C3.55503 17.6469 3.55688 17.6469 3.55874 17.6469C3.56059 17.6469 3.56244 17.6469 3.56429 17.6469C3.56614 17.6469 3.56799 17.6469 3.56984 17.6469C3.57168 17.6469 3.57353 17.6469 3.57538 17.6469C3.57722 17.6469 3.57907 17.6469 3.58091 17.6469C3.58276 17.6469 3.5846 17.6469 3.58644 17.6469C3.58828 17.6469 3.59012 17.6469 3.59196 17.6469C3.5938 17.6469 3.59564 17.6469 3.59748 17.6469C3.59932 17.6469 3.60116 17.6469 3.60299 17.6469C3.60483 17.6469 3.60666 17.6469 3.6085 17.6469C3.61033 17.6469 3.61217 17.6469 3.614 17.6469C3.61583 17.6469 3.61766 17.6469 3.61949 17.6469C3.62132 17.6469 3.62315 17.6469 3.62498 17.6469C3.62681 17.6469 3.62864 17.6469 3.63046 17.6469C3.63229 17.6469 3.63411 17.6469 3.63594 17.6469C3.63776 17.6469 3.63959 17.6469 3.64141 17.6469C3.64323 17.6469 3.64505 17.6469 3.64687 17.6469C3.64869 17.6469 3.65051 17.6469 3.65233 17.6469C3.65415 17.6469 3.65597 17.6469 3.65778 17.6469C3.6596 17.6469 3.66142 17.6469 3.66323 17.6469C3.66505 17.6469 3.66686 17.6469 3.66867 17.6469C3.67048 17.6469 3.6723 17.6469 3.67411 17.6469C3.67592 17.6469 3.67773 17.6469 3.67953 17.6469C3.68134 17.6469 3.68315 17.6469 3.68496 17.6469C3.68676 17.6469 3.68857 17.6469 3.69037 17.6469C3.69218 17.6469 3.69398 17.6469 3.69579 17.6469C3.69759 17.6469 3.69939 17.6469 3.70119 17.6469C3.70299 17.6469 3.70479 17.6469 3.70659 17.6469C3.70839 17.6469 3.71019 17.6469 3.71198 17.6469C3.71378 17.6469 3.71558 17.6469 3.71737 17.6469C3.71917 17.6469 3.72096 17.6469 3.72275 17.6469C3.72455 17.6469 3.72634 17.6469 3.72813 17.6469C3.72992 17.6469 3.73171 17.6469 3.7335 17.6469C3.73529 17.6469 3.73708 17.6469 3.73886 17.6469C3.74065 17.6469 3.74244 17.6469 3.74422 17.6469C3.74601 17.6469 3.74779 17.6469 3.74957 17.6469C3.75136 17.6469 3.75314 17.6469 3.75492 17.6469C3.7567 17.6469 3.75848 17.6469 3.76026 17.6469C3.76204 17.6469 3.76382 17.6469 3.76559 17.6469C3.76737 17.6469 3.76915 17.6469 3.77092 17.6469C3.7727 17.6469 3.77447 17.6469 3.77625 17.6469C3.77802 17.6469 3.77979 17.6469 3.78156 17.6469C3.78333 17.6469 3.7851 17.6469 3.78687 17.6469C3.78864 17.6469 3.79041 17.6469 3.79218 17.6469C3.79395 17.6469 3.79571 17.6469 3.79748 17.6469C3.79924 17.6469 3.80101 17.6469 3.80277 17.6469C3.80453 17.6469 3.8063 17.6469 3.80806 17.6469C3.80982 17.6469 3.81158 17.6469 3.81334 17.6469C3.8151 17.6469 3.81686 17.6469 3.81861 17.6469C3.82037 17.6469 3.82213 17.6469 3.82388 17.6469C3.82564 17.6469 3.82739 17.6469 3.82915 17.6469C3.8309 17.6469 3.83265 17.6469 3.83441 17.6469C3.83616 17.6469 3.83791 17.6469 3.83966 17.6469C3.84141 17.6469 3.84316 17.6469 3.8449 17.6469C3.84665 17.6469 3.8484 17.6469 3.85014 17.6469C3.85189 17.6469 3.85363 17.6469 3.85538 17.6469C3.85712 17.6469 3.85886 17.6469 3.86061 17.6469C3.86235 17.6469 3.86409 17.6469 3.86583 17.6469C3.86757 17.6469 3.86931 17.6469 3.87104 17.6469C3.87278 17.6469 3.87452 17.6469 3.87626 17.6469C3.87799 17.6469 3.87973 17.6469 3.88146 17.6469C3.88319 17.6469 3.88493 17.6469 3.88666 17.6469C3.88839 17.6469 3.89012 17.6469 3.89185 17.6469C3.89358 17.6469 3.89531 17.6469 3.89704 17.6469C3.89877 17.6469 3.90049 17.6469 3.90222 17.6469C3.90395 17.6469 3.90567 17.6469 3.90739 17.6469C3.90912 17.6469 3.91084 17.6469 3.91256 17.6469C3.91429 17.6469 3.91601 17.6469 3.91773 17.6469C3.91945 17.6469 3.92117 17.6469 3.92288 17.6469C3.9246 17.6469 3.92632 17.6469 3.92804 17.6469C3.92975 17.6469 3.93147 17.6469 3.93318 17.6469C3.9349 17.6469 3.93661 17.6469 3.93832 17.6469C3.94003 17.6469 3.94175 17.6469 3.94346 17.6469C3.94517 17.6469 3.94687 17.6469 3.94858 17.6469C3.95029 17.6469 3.952 17.6469 3.95371 17.6469C3.95541 17.6469 3.95712 17.6469 3.95882 17.6469C3.96053 17.6469 3.96223 17.6469 3.96393 17.6469C3.96563 17.6469 3.96734 17.6469 3.96904 17.6469C3.97074 17.6469 3.97244 17.6469 3.97413 17.6469C3.97583 17.6469 3.97753 17.6469 3.97923 17.6469C3.98092 17.6469 3.98262 17.6469 3.98431 17.6469C3.98601 17.6469 3.9877 17.6469 3.98939 17.6469C3.99109 17.6469 3.99278 17.6469 3.99447 17.6469C3.99616 17.6469 3.99785 17.6469 3.99954 17.6469C4.00123 17.6469 4.00291 17.6469 4.0046 17.6469C4.00629 17.6469 4.00797 17.6469 4.00966 17.6469C4.01134 17.6469 4.01303 17.6469 4.01471 17.6469C4.01639 17.6469 4.01807 17.6469 4.01975 17.6469C4.02144 17.6469 4.02312 17.6469 4.02479 17.6469C4.02647 17.6469 4.02815 17.6469 4.02983 17.6469C4.0315 17.6469 4.03318 17.6469 4.03486 17.6469C4.03653 17.6469 4.0382 17.6469 4.03988 17.6469C4.04155 17.6469 4.04322 17.6469 4.04489 17.6469C4.04656 17.6469 4.04823 17.6469 4.0499 17.6469C4.05157 17.6469 4.05324 17.6469 4.05491 17.6469C4.05657 17.6469 4.05824 17.6469 4.0599 17.6469C4.06157 17.6469 4.06323 17.6469 4.0649 17.6469C4.06656 17.6469 4.06822 17.6469 4.06988 17.6469C4.07154 17.6469 4.0732 17.6469 4.07486 17.6469C4.07652 17.6469 4.07818 17.6469 4.07984 17.6469C4.0815 17.6469 4.08315 17.6469 4.08481 17.6469C4.08646 17.6469 4.08812 17.6469 4.08977 17.6469C4.09142 17.6469 4.09308 17.6469 4.09473 17.6469C4.09638 17.6469 4.09803 17.6469 4.09968 17.6469C4.10133 17.6469 4.10298 17.6469 4.10462 17.6469C4.10627 17.6469 4.10792 17.6469 4.10956 17.6469C4.11121 17.6469 4.11285 17.6469 4.11449 17.6469C4.11614 17.6469 4.11778 17.6469 4.11942 17.6469C4.12106 17.6469 4.1227 17.6469 4.12434 17.6469C4.12598 17.6469 4.12762 17.6469 4.12926 17.6469C4.1309 17.6469 4.13253 17.6469 4.13417 17.6469C4.1358 17.6469 4.13744 17.6469 4.13907 17.6469C4.14071 17.6469 4.14234 17.6469 4.14397 17.6469C4.1456 17.6469 4.14723 17.6469 4.14886 17.6469C4.15049 17.6469 4.15212 17.6469 4.15375 17.6469C4.15538 17.6469 4.157 17.6469 4.15863 17.6469C4.16025 17.6469 4.16188 17.6469 4.1635 17.6469C4.16513 17.6469 4.16675 17.6469 4.16837 17.6469C4.16999 17.6469 4.17161 17.6469 4.17323 17.6469C4.17485 17.6469 4.17647 17.6469 4.17809 17.6469C4.17971 17.6469 4.18132 17.6469 4.18294 17.6469C4.18456 17.6469 4.18617 17.6469 4.18778 17.6469C4.1894 17.6469 4.19101 17.6469 4.19262 17.6469C4.19424 17.6469 4.19585 17.6469 4.19746 17.6469C4.19907 17.6469 4.20068 17.6469 4.20228 17.6469C4.20389 17.6469 4.2055 17.6469 4.2071 17.6469C4.20871 17.6469 4.21032 17.6469 4.21192 17.6469C4.21352 17.6469 4.21513 17.6469 4.21673 17.6469C4.21833 17.6469 4.21993 17.6469 4.22153 17.6469C4.22313 17.6469 4.22473 17.6469 4.22633 17.6469C4.22793 17.6469 4.22953 17.6469 4.23112 17.6469C4.23272 17.6469 4.23431 17.6469 4.23591 17.6469C4.2375 17.6469 4.23909 17.6469 4.24069 17.6469C4.24228 17.6469 4.24387 17.6469 4.24546 17.6469C4.24705 17.6469 4.24864 17.6469 4.25023 17.6469C4.25182 17.6469 4.2534 17.6469 4.25499 17.6469C4.25658 17.6469 4.25816 17.6469 4.25975 17.6469C4.26133 17.6469 4.26291 17.6469 4.2645 17.6469C4.26608 17.6469 4.26766 17.6469 4.26924 17.6469C4.27082 17.6469 4.2724 17.6469 4.27398 17.6469C4.27556 17.6469 4.27714 17.6469 4.27871 17.6469C4.28029 17.6469 4.28186 17.6469 4.28344 17.6469C4.28501 17.6469 4.28659 17.6469 4.28816 17.6469C4.28973 17.6469 4.2913 17.6469 4.29288 17.6469C4.29445 17.6469 4.29602 17.6469 4.29758 17.6469C4.29915 17.6469 4.30072 17.6469 4.30229 17.6469C4.30385 17.6469 4.30542 17.6469 4.30698 17.6469C4.30855 17.6469 4.31011 17.6469 4.31168 17.6469C4.31324 17.6469 4.3148 17.6469 4.31636 17.6469C4.31792 17.6469 4.31948 17.6469 4.32104 17.6469C4.3226 17.6469 4.32416 17.6469 4.32571 17.6469C4.32727 17.6469 4.32883 17.6469 4.33038 17.6469C4.33194 17.6469 4.33349 17.6469 4.33504 17.6469C4.3366 17.6469 4.33815 17.6469 4.3397 17.6469C4.34125 17.6469 4.3428 17.6469 4.34435 17.6469C4.3459 17.6469 4.34745 17.6469 4.34899 17.6469C4.35054 17.6469 4.35209 17.6469 4.35363 17.6469C4.35518 17.6469 4.35672 17.6469 4.35826 17.6469C4.35981 17.6469 4.36135 17.6469 4.36289 17.6469C4.36443 17.6469 4.36597 17.6469 4.36751 17.6469C4.36905 17.6469 4.37059 17.6469 4.37213 17.6469C4.37366 17.6469 4.3752 17.6469 4.37673 17.6469C4.37827 17.6469 4.3798 17.6469 4.38134 17.6469C4.38287 17.6469 4.3844 17.6469 4.38593 17.6469C4.38746 17.6469 4.389 17.6469 4.39052 17.6469C4.39205 17.6469 4.39358 17.6469 4.39511 17.6469C4.39664 17.6469 4.39816 17.6469 4.39969 17.6469C4.40121 17.6469 4.40274 17.6469 4.40426 17.6469C4.40579 17.6469 4.40731 17.6469 4.40883 17.6469C4.41035 17.6469 4.41187 17.6469 4.41339 17.6469C4.41491 17.6469 4.41643 17.6469 4.41795 17.6469C4.41946 17.6469 4.42098 17.6469 4.4225 17.6469C4.42401 17.6469 4.42553 17.6469 4.42704 17.6469C4.42855 17.6469 4.43007 17.6469 4.43158 17.6469C4.43309 17.6469 4.4346 17.6469 4.43611 17.6469C4.43762 17.6469 4.43913 17.6469 4.44064 17.6469C4.44214 17.6469 4.44365 17.6469 4.44516 17.6469C4.44666 17.6469 4.44817 17.6469 4.44967 17.6469C4.45117 17.6469 4.45268 17.6469 4.45418 17.6469C4.45568 17.6469 4.45718 17.6469 4.45868 17.6469C4.46018 17.6469 4.46168 17.6469 4.46318 17.6469C4.46468 17.6469 4.46617 17.6469 4.46767 17.6469C4.46916 17.6469 4.47066 17.6469 4.47215 17.6469C4.47365 17.6469 4.47514 17.6469 4.47663 17.6469C4.47812 17.6469 4.47961 17.6469 4.4811 17.6469C4.48259 17.6469 4.48408 17.6469 4.48557 17.6469C4.48706 17.6469 4.48855 17.6469 4.49003 17.6469C4.49152 17.6469 4.493 17.6469 4.49449 17.6469C4.49597 17.6469 4.49746 17.6469 4.49894 17.6469C4.50042 17.6469 4.5019 17.6469 4.50338 17.6469C4.50486 17.6469 4.50634 17.6469 4.50782 17.6469C4.5093 17.6469 4.51077 17.6469 4.51225 17.6469C4.51373 17.6469 4.5152 17.6469 4.51668 17.6469C4.51815 17.6469 4.51962 17.6469 4.5211 17.6469C4.52257 17.6469 4.52404 17.6469 4.52551 17.6469C4.52698 17.6469 4.52845 17.6469 4.52992 17.6469C4.53139 17.6469 4.53285 17.6469 4.53432 17.6469C4.53579 17.6469 4.53725 17.6469 4.53872 17.6469C4.54018 17.6469 4.54164 17.6469 4.54311 17.6469C4.54457 17.6469 4.54603 17.6469 4.54749 17.6469C4.54895 17.6469 4.55041 17.6469 4.55187 17.6469C4.55333 17.6469 4.55479 17.6469 4.55624 17.6469C4.5577 17.6469 4.55915 17.6469 4.56061 17.6469C4.56206 17.6469 4.56352 17.6469 4.56497 17.6469C4.56642 17.6469 4.56787 17.6469 4.56932 17.6469C4.57077 17.6469 4.57222 17.6469 4.57367 17.6469C4.57512 17.6469 4.57657 17.6469 4.57802 17.6469C4.57946 17.6469 4.58091 17.6469 4.58235 17.6469C4.5838 17.6469 4.58524 17.6469 4.58668 17.6469C4.58813 17.6469 4.58957 17.6469 4.59101 17.6469C4.59245 17.6469 4.59389 17.6469 4.59533 17.6469C4.59677 17.6469 4.59821 17.6469 4.59964 17.6469C4.60108 17.6469 4.60252 17.6469 4.60395 17.6469C4.60539 17.6469 4.60682 17.6469 4.60825 17.6469C4.60969 17.6469 4.61112 17.6469 4.61255 17.6469C4.61398 17.6469 4.61541 17.6469 4.61684 17.6469C4.61827 17.6469 4.6197 17.6469 4.62112 17.6469C4.62255 17.6469 4.62398 17.6469 4.6254 17.6469C4.62683 17.6469 4.62825 17.6469 4.62967 17.6469C4.6311 17.6469 4.63252 17.6469 4.63394 17.6469C4.63536 17.6469 4.63678 17.6469 4.6382 17.6469C4.63962 17.6469 4.64104 17.6469 4.64246 17.6469C4.64387 17.6469 4.64529 17.6469 4.6467 17.6469C4.64812 17.6469 4.64953 17.6469 4.65095 17.6469C4.65236 17.6469 4.65377 17.6469 4.65518 17.6469C4.65659 17.6469 4.65801 17.6469 4.65941 17.6469C4.66082 17.6469 4.66223 17.6469 4.66364 17.6469C4.66505 17.6469 4.66645 17.6469 4.66786 17.6469C4.66926 17.6469 4.67067 17.6469 4.67207 17.6469C4.67348 17.6469 4.67488 17.6469 4.67628 17.6469C4.67768 17.6469 4.67908 17.6469 4.68048 17.6469C4.68188 17.6469 4.68328 17.6469 4.68468 17.6469C4.68607 17.6469 4.68747 17.6469 4.68887 17.6469C4.69026 17.6469 4.69166 17.6469 4.69305 17.6469C4.69444 17.6469 4.69584 17.6469 4.69723 17.6469C4.69862 17.6469 4.70001 17.6469 4.7014 17.6469C4.70279 17.6469 4.70418 17.6469 4.70557 17.6469C4.70695 17.6469 4.70834 17.6469 4.70973 17.6469C4.71111 17.6469 4.7125 17.6469 4.71388 17.6469C4.71526 17.6469 4.71665 17.6469 4.71803 17.6469C4.71941 17.6469 4.72079 17.6469 4.72217 17.6469C4.72355 17.6469 4.72493 17.6469 4.72631 17.6469C4.72769 17.6469 4.72906 17.6469 4.73044 17.6469C4.73181 17.6469 4.73319 17.6469 4.73456 17.6469C4.73594 17.6469 4.73731 17.6469 4.73868 17.6469C4.74005 17.6469 4.74143 17.6469 4.7428 17.6469C4.74417 17.6469 4.74553 17.6469 4.7469 17.6469C4.74827 17.6469 4.74964 17.6469 4.751 17.6469C4.75237 17.6469 4.75373 17.6469 4.7551 17.6469C4.75646 17.6469 4.75783 17.6469 4.75919 17.6469C4.76055 17.6469 4.76191 17.6469 4.76327 17.6469C4.76463 17.6469 4.76599 17.6469 4.76735 17.6469C4.76871 17.6469 4.77006 17.6469 4.77142 17.6469C4.77278 17.6469 4.77413 17.6469 4.77549 17.6469C4.77684 17.6469 4.77819 17.6469 4.77955 17.6469C4.7809 17.6469 4.78225 17.6469 4.7836 17.6469C4.78495 17.6469 4.7863 17.6469 4.78765 17.6469C4.789 17.6469 4.79034 17.6469 4.79169 17.6469C4.79304 17.6469 4.79438 17.6469 4.79573 17.6469C4.79707 17.6469 4.79842 17.6469 4.79976 17.6469C4.8011 17.6469 4.80244 17.6469 4.80378 17.6469C4.80512 17.6469 4.80646 17.6469 4.8078 17.6469C4.80914 17.6469 4.81048 17.6469 4.81181 17.6469C4.81315 17.6469 4.81449 17.6469 4.81582 17.6469C4.81715 17.6469 4.81849 17.6469 4.81982 17.6469C4.82115 17.6469 4.82249 17.6469 4.82382 17.6469C4.82515 17.6469 4.82648 17.6469 4.82781 17.6469C4.82913 17.6469 4.83046 17.6469 4.83179 17.6469C4.83311 17.6469 4.83444 17.6469 4.83577 17.6469C4.83709 17.6469 4.83841 17.6469 4.83974 17.6469C4.84106 17.6469 4.84238 17.6469 4.8437 17.6469C4.84502 17.6469 4.84634 17.6469 4.84766 17.6469C4.84898 17.6469 4.8503 17.6469 4.85162 17.6469C4.85293 17.6469 4.85425 17.6469 4.85556 17.6469C4.85688 17.6469 4.85819 17.6469 4.85951 17.6469C4.86082 17.6469 4.86213 17.6469 4.86344 17.6469C4.86475 17.6469 4.86606 17.6469 4.86737 17.6469C4.86868 17.6469 4.86999 17.6469 4.8713 17.6469C4.8726 17.6469 4.87391 17.6469 4.87521 17.6469C4.87652 17.6469 4.87782 17.6469 4.87913 17.6469C4.88043 17.6469 4.88173 17.6469 4.88303 17.6469C4.88433 17.6469 4.88563 17.6469 4.88693 17.6469C4.88823 17.6469 4.88953 17.6469 4.89083 17.6469C4.89212 17.6469 4.89342 17.6469 4.89472 17.6469C4.89601 17.6469 4.89731 17.6469 4.8986 17.6469C4.89989 17.6469 4.90118 17.6469 4.90248 17.6469C4.90377 17.6469 4.90506 17.6469 4.90635 17.6469C4.90764 17.6469 4.90893 17.6469 4.91021 17.6469C4.9115 17.6469 4.91279 17.6469 4.91407 17.6469C4.91536 17.6469 4.91664 17.6469 4.91793 17.6469C4.91921 17.6469 4.92049 17.6469 4.92177 17.6469C4.92305 17.6469 4.92433 17.6469 4.92561 17.6469C4.92689 17.6469 4.92817 17.6469 4.92945 17.6469C4.93073 17.6469 4.932 17.6469 4.93328 17.6469C4.93456 17.6469 4.93583 17.6469 4.9371 17.6469C4.93838 17.6469 4.93965 17.6469 4.94092 17.6469C4.94219 17.6469 4.94346 17.6469 4.94473 17.6469C4.946 17.6469 4.94727 17.6469 4.94854 17.6469C4.94981 17.6469 4.95107 17.6469 4.95234 17.6469C4.95361 17.6469 4.95487 17.6469 4.95613 17.6469C4.9574 17.6469 4.95866 17.6469 4.95992 17.6469C4.96118 17.6469 4.96245 17.6469 4.9637 17.6469C4.96496 17.6469 4.96622 17.6469 4.96748 17.6469C4.96874 17.6469 4.97 17.6469 4.97125 17.6469C4.97251 17.6469 4.97376 17.6469 4.97502 17.6469C4.97627 17.6469 4.97752 17.6469 4.97878 17.6469C4.98003 17.6469 4.98128 17.6469 4.98253 17.6469C4.98378 17.6469 4.98503 17.6469 4.98628 17.6469C4.98752 17.6469 4.98877 17.6469 4.99002 17.6469C4.99126 17.6469 4.99251 17.6469 4.99375 17.6469C4.995 17.6469 4.99624 17.6469 4.99748 17.6469C4.99872 17.6469 4.99997 17.6469 5.00121 17.6469C5.00245 17.6469 5.00369 17.6469 5.00492 17.6469C5.00616 17.6469 5.0074 17.6469 5.00864 17.6469C5.00987 17.6469 5.01111 17.6469 5.01234 17.6469C5.01358 17.6469 5.01481 17.6469 5.01604 17.6469C5.01727 17.6469 5.0185 17.6469 5.01973 17.6469C5.02097 17.6469 5.02219 17.6469 5.02342 17.6469C5.02465 17.6469 5.02588 17.6469 5.02711 17.6469C5.02833 17.6469 5.02956 17.6469 5.03078 17.6469C5.03201 17.6469 5.03323 17.6469 5.03445 17.6469C5.03567 17.6469 5.0369 17.6469 5.03812 17.6469C5.03934 17.6469 5.04056 17.6469 5.04178 17.6469C5.04299 17.6469 5.04421 17.6469 5.04543 17.6469C5.04664 17.6469 5.04786 17.6469 5.04907 17.6469C5.05029 17.6469 5.0515 17.6469 5.05272 17.6469C5.05393 17.6469 5.05514 17.6469 5.05635 17.6469C5.05756 17.6469 5.05877 17.6469 5.05998 17.6469C5.06119 17.6469 5.0624 17.6469 5.0636 17.6469C5.06481 17.6469 5.06602 17.6469 5.06722 17.6469C5.06843 17.6469 5.06963 17.6469 5.07083 17.6469C5.07203 17.6469 5.07324 17.6469 5.07444 17.6469C5.07564 17.6469 5.07684 17.6469 5.07804 17.6469C5.07924 17.6469 5.08043 17.6469 5.08163 17.6469C5.08283 17.6469 5.08402 17.6469 5.08522 17.6469C5.08641 17.6469 5.08761 17.6469 5.0888 17.6469C5.08999 17.6469 5.09119 17.6469 5.09238 17.6469C5.09357 17.6469 5.09476 17.6469 5.09595 17.6469C5.09714 17.6469 5.09832 17.6469 5.09951 17.6469C5.1007 17.6469 5.10188 17.6469 5.10307 17.6469C5.10425 17.6469 5.10544 17.6469 5.10662 17.6469C5.1078 17.6469 5.10899 17.6469 5.11017 17.6469C5.11135 17.6469 5.11253 17.6469 5.11371 17.6469C5.11489 17.6469 5.11607 17.6469 5.11724 17.6469C5.11842 17.6469 5.1196 17.6469 5.12077 17.6469C5.12195 17.6469 5.12312 17.6469 5.12429 17.6469C5.12547 17.6469 5.12664 17.6469 5.12781 17.6469C5.12898 17.6469 5.13015 17.6469 5.13132 17.6469C5.13249 17.6469 5.13366 17.6469 5.13483 17.6469C5.136 17.6469 5.13716 17.6469 5.13833 17.6469C5.13949 17.6469 5.14066 17.6469 5.14182 17.6469C5.14298 17.6469 5.14415 17.6469 5.14531 17.6469C5.14647 17.6469 5.14763 17.6469 5.14879 17.6469C5.14995 17.6469 5.15111 17.6469 5.15227 17.6469C5.15342 17.6469 5.15458 17.6469 5.15574 17.6469C5.15689 17.6469 5.15805 17.6469 5.1592 17.6469C5.16035 17.6469 5.16151 17.6469 5.16266 17.6469C5.16381 17.6469 5.16496 17.6469 5.16611 17.6469C5.16726 17.6469 5.16841 17.6469 5.16956 17.6469C5.1707 17.6469 5.17185 17.6469 5.173 17.6469C5.17414 17.6469 5.17529 17.6469 5.17643 17.6469C5.17757 17.6469 5.17872 17.6469 5.17986 17.6469C5.181 17.6469 5.18214 17.6469 5.18328 17.6469C5.18442 17.6469 5.18556 17.6469 5.1867 17.6469C5.18784 17.6469 5.18897 17.6469 5.19011 17.6469C5.19124 17.6469 5.19238 17.6469 5.19351 17.6469C5.19465 17.6469 5.19578 17.6469 5.19691 17.6469C5.19804 17.6469 5.19918 17.6469 5.20031 17.6469C5.20144 17.6469 5.20256 17.6469 5.20369 17.6469C5.20482 17.6469 5.20595 17.6469 5.20707 17.6469C5.2082 17.6469 5.20933 17.6469 5.21045 17.6469C5.21157 17.6469 5.2127 17.6469 5.21382 17.6469C5.21494 17.6469 5.21606 17.6469 5.21718 17.6469C5.2183 17.6469 5.21942 17.6469 5.22054 17.6469C5.22166 17.6469 5.22278 17.6469 5.22389 17.6469C5.22501 17.6469 5.22612 17.6469 5.22724 17.6469C5.22835 17.6469 5.22947 17.6469 5.23058 17.6469C5.23169 17.6469 5.2328 17.6469 5.23391 17.6469C5.23502 17.6469 5.23613 17.6469 5.23724 17.6469C5.23835 17.6469 5.23946 17.6469 5.24056 17.6469C5.24167 17.6469 5.24277 17.6469 5.24388 17.6469C5.24498 17.6469 5.24609 17.6469 5.24719 17.6469C5.24829 17.6469 5.24939 17.6469 5.25049 17.6469C5.25159 17.6469 5.25269 17.6469 5.25379 17.6469C5.25489 17.6469 5.25599 17.6469 5.25709 17.6469C5.25818 17.6469 5.25928 17.6469 5.26037 17.6469C5.26147 17.6469 5.26256 17.6469 5.26365 17.6469C5.26475 17.6469 5.26584 17.6469 5.26693 17.6469C5.26802 17.6469 5.26911 17.6469 5.2702 17.6469C5.27129 17.6469 5.27237 17.6469 5.27346 17.6469C5.27455 17.6469 5.27563 17.6469 5.27672 17.6469C5.2778 17.6469 5.27889 17.6469 5.27997 17.6469C5.28105 17.6469 5.28213 17.6469 5.28322 17.6469C5.2843 17.6469 5.28538 17.6469 5.28645 17.6469C5.28753 17.6469 5.28861 17.6469 5.28969 17.6469C5.29077 17.6469 5.29184 17.6469 5.29292 17.6469C5.29399 17.6469 5.29507 17.6469 5.29614 17.6469C5.29721 17.6469 5.29828 17.6469 5.29935 17.6469C5.30043 17.6469 5.3015 17.6469 5.30256 17.6469C5.30363 17.6469 5.3047 17.6469 5.30577 17.6469C5.30684 17.6469 5.3079 17.6469 5.30897 17.6469C5.31003 17.6469 5.3111 17.6469 5.31216 17.6469C5.31322 17.6469 5.31429 17.6469 5.31535 17.6469C5.31641 17.6469 5.31747 17.6469 5.31853 17.6469C5.31959 17.6469 5.32064 17.6469 5.3217 17.6469C5.32276 17.6469 5.32382 17.6469 5.32487 17.6469C5.32593 17.6469 5.32698 17.6469 5.32803 17.6469C5.32909 17.6469 5.33014 17.6469 5.33119 17.6469C5.33224 17.6469 5.33329 17.6469 5.33434 17.6469C5.33539 17.6469 5.33644 17.6469 5.33749 17.6469C5.33853 17.6469 5.33958 17.6469 5.34063 17.6469C5.34167 17.6469 5.34272 17.6469 5.34376 17.6469C5.3448 17.6469 5.34585 17.6469 5.34689 17.6469C5.34793 17.6469 5.34897 17.6469 5.35001 17.6469C5.35105 17.6469 5.35209 17.6469 5.35312 17.6469V16.4469ZM2.97698 16.4469C1.93014 16.4626 1.19194 16.4703 0.759375 16.4703V17.6703C1.20181 17.6703 1.94799 17.6624 2.99489 17.6468L2.97698 16.4469ZM21.5906 8.07031L21.5498 8.66892L22.0509 8.70309L22.1727 8.21583L21.5906 8.07031ZM20.5594 8L19.9976 8.21067L20.1332 8.57234L20.5186 8.59861L20.5594 8ZM17.7937 6.92188L17.5709 6.36473L17.563 6.36803L17.7937 6.92188ZM16.8562 7.41406L17.1742 7.92286L17.1854 7.91591L17.1962 7.90849L16.8562 7.41406ZM15.8719 8.11719L15.506 7.64161L15.2719 7.82175V8.11719H15.8719ZM15.8484 10.25L15.2484 10.2422V10.25H15.8484ZM15.8719 14.2578L15.2719 14.2642L15.272 14.2706L15.8719 14.2578ZM15.9656 16.625L16.5403 16.7974L16.5908 16.6291L16.5425 16.4602L15.9656 16.625ZM14.325 17L13.9146 17.4377L13.9287 17.4509L13.9436 17.4632L14.325 17ZM13.8562 16.1562L13.2573 16.1208L13.2529 16.1953L13.2668 16.2685L13.8562 16.1562ZM14.6531 4.78906L14.7833 4.20335L14.1177 4.05545L14.0556 4.73441L14.6531 4.78906ZM15.7078 5.02344L16.3072 4.9966L16.2867 4.53743L15.838 4.43773L15.7078 5.02344ZM15.7781 6.59375L15.1787 6.62059L15.2327 7.82491L16.1609 7.05576L15.7781 6.59375ZM20.7469 5.82031L20.4109 6.3175L20.4171 6.32156L20.7469 5.82031ZM21.6314 7.4717L20.6002 7.40139L20.5186 8.59861L21.5498 8.66892L21.6314 7.4717ZM21.1212 7.78933C20.9307 7.28151 20.6557 6.84964 20.2688 6.54453C19.8743 6.23337 19.4056 6.0875 18.8953 6.0875V7.2875C19.1663 7.2875 19.3655 7.36038 19.5257 7.48672C19.6935 7.61911 19.8599 7.84349 19.9976 8.21067L21.1212 7.78933ZM18.8953 6.0875C18.4602 6.0875 18.017 6.18635 17.5709 6.36479L18.0166 7.47896C18.3517 7.3449 18.6429 7.2875 18.8953 7.2875V6.0875ZM17.563 6.36803C17.1617 6.53525 16.8098 6.71785 16.5163 6.91964L17.1962 7.90849C17.4027 7.76652 17.6758 7.621 18.0245 7.47572L17.563 6.36803ZM16.5383 6.90526C16.2641 7.07662 15.9183 7.32453 15.506 7.64161L16.2377 8.59276C16.638 8.28484 16.9484 8.06401 17.1742 7.92286L16.5383 6.90526ZM15.2719 8.11719C15.2719 8.33099 15.2641 9.03684 15.2485 10.2422L16.4484 10.2578C16.464 9.05691 16.4719 8.34089 16.4719 8.11719H15.2719ZM15.2484 10.25C15.2484 11.4557 15.2563 12.7938 15.2719 14.2642L16.4718 14.2514C16.4562 12.7844 16.4484 11.4506 16.4484 10.25H15.2484ZM15.272 14.2706C15.2877 15.0061 15.3034 15.5749 15.3192 15.9749C15.3271 16.1744 15.3352 16.3361 15.3436 16.4572C15.3478 16.5174 15.3524 16.5722 15.3576 16.6188C15.3614 16.6527 15.3695 16.7225 15.3887 16.7898L16.5425 16.4602C16.554 16.5002 16.5542 16.5214 16.5502 16.4854C16.5476 16.4623 16.5444 16.426 16.5407 16.3739C16.5335 16.2704 16.526 16.1224 16.5183 15.9274C16.5029 15.5384 16.4873 14.9783 16.4717 14.245L15.272 14.2706ZM15.3909 16.4526C15.3421 16.6152 15.288 16.6767 15.2646 16.6968C15.2506 16.7088 15.2248 16.7281 15.1453 16.7281V17.9281C15.4721 17.9281 15.7861 17.8303 16.0456 17.6079C16.2956 17.3936 16.4485 17.1035 16.5403 16.7974L15.3909 16.4526ZM15.1453 16.7281C15.0323 16.7281 14.8895 16.6876 14.7064 16.5368L13.9436 17.4632C14.2918 17.7499 14.6958 17.9281 15.1453 17.9281V16.7281ZM14.7354 16.5623C14.5754 16.4123 14.4838 16.244 14.4457 16.044L13.2668 16.2685C13.3537 16.7248 13.5746 17.1189 13.9146 17.4377L14.7354 16.5623ZM14.4552 16.1917C14.752 11.1777 15.0172 7.39636 15.2506 4.84371L14.0556 4.73441C13.8203 7.30676 13.5543 11.1036 13.2573 16.1208L14.4552 16.1917ZM14.523 5.37477L15.5777 5.60915L15.838 4.43773L14.7833 4.20335L14.523 5.37477ZM15.1084 5.05028L15.1787 6.62059L16.3775 6.56691L16.3072 4.9966L15.1084 5.05028ZM16.1609 7.05576C17.2251 6.17405 18.0248 5.83438 18.5906 5.83438V4.63437C17.5939 4.63437 16.5187 5.20095 15.3953 6.13174L16.1609 7.05576ZM18.5906 5.83438C19.3582 5.83438 19.9529 6.00798 20.411 6.31747L21.0828 5.32316C20.3846 4.8514 19.5418 4.63437 18.5906 4.63437V5.83438ZM20.4171 6.32156C20.8313 6.59407 21.0375 6.96981 21.0375 7.53125H22.2375C22.2375 6.59269 21.8499 5.8278 21.0766 5.31906L20.4171 6.32156ZM21.0375 7.53125C21.0375 7.74956 21.0219 7.87127 21.0085 7.92479L22.1727 8.21583C22.2218 8.01935 22.2375 7.78169 22.2375 7.53125H21.0375ZM27.8906 4.95312L28.0181 4.36682L27.3606 4.22388L27.2936 4.89342L27.8906 4.95312ZM28.9688 5.1875L29.5659 5.12924L29.5235 4.69408L29.0962 4.60119L28.9688 5.1875ZM29.2969 11.2344L28.6972 11.2548L28.6972 11.2549L29.2969 11.2344ZM29.4844 16.3203L30.0606 16.4876L30.0885 16.3916L30.0837 16.2918L29.4844 16.3203ZM27.8438 16.7188L27.4334 17.1565L27.4474 17.1697L27.4623 17.1819L27.8438 16.7188ZM27.375 15.875L26.7757 15.8458L26.7722 15.9171L26.7856 15.9873L27.375 15.875ZM27.5625 10.8828L28.1621 10.9037L28.1621 10.9036L27.5625 10.8828ZM29.2734 1.32031L28.7933 1.68039L28.8009 1.6901L29.2734 1.32031ZM29.4375 3.40625L28.9657 3.03554L28.9619 3.04042L29.4375 3.40625ZM27.5859 1.08594L27.0976 0.737157L27.0926 0.744411L27.5859 1.08594ZM27.7632 5.53943L28.8413 5.77381L29.0962 4.60119L28.0181 4.36682L27.7632 5.53943ZM28.3716 5.24576C28.4946 6.50696 28.6035 8.50662 28.6972 11.2548L29.8965 11.2139C29.8027 8.46213 29.6929 6.43054 29.5659 5.12924L28.3716 5.24576ZM28.6972 11.2549C28.7909 13.9877 28.8536 15.6877 28.8851 16.3489L30.0837 16.2918C30.0527 15.6404 29.9903 13.9498 29.8965 11.2138L28.6972 11.2549ZM28.9082 16.153C28.8579 16.3262 28.8013 16.3937 28.776 16.4161C28.7616 16.4289 28.7383 16.4469 28.6641 16.4469V17.6469C28.9961 17.6469 29.3126 17.5438 29.5716 17.3144C29.8198 17.0946 29.9702 16.7988 30.0606 16.4876L28.9082 16.153ZM28.6641 16.4469C28.5511 16.4469 28.4082 16.4063 28.2252 16.2556L27.4623 17.1819C27.8105 17.4687 28.2146 17.6469 28.6641 17.6469V16.4469ZM28.2541 16.281C28.0941 16.1311 28.0025 15.9627 27.9644 15.7627L26.7856 15.9873C26.8725 16.4435 27.0934 16.8377 27.4334 17.1565L28.2541 16.281ZM27.9743 15.9042C28.0058 15.2585 28.0684 13.5895 28.1621 10.9037L26.9629 10.8619C26.8691 13.5511 26.8067 15.2103 26.7757 15.8458L27.9743 15.9042ZM28.1621 10.9036C28.2558 8.20223 28.3647 6.24215 28.4876 5.01283L27.2936 4.89342C27.1665 6.1641 27.0567 8.15715 26.9629 10.862L28.1621 10.9036ZM28.2188 1.35781C28.4289 1.35781 28.611 1.43708 28.7934 1.68031L29.7534 0.960312C29.3734 0.453548 28.8524 0.157812 28.2188 0.157812V1.35781ZM28.8009 1.6901C28.9972 1.94085 29.0953 2.22385 29.0953 2.5625H30.2953C30.2953 1.96365 30.1122 1.41852 29.7459 0.950528L28.8009 1.6901ZM29.0953 2.5625C29.0953 2.80427 29.0365 2.94549 28.9657 3.03556L29.9093 3.77694C30.1823 3.42951 30.2953 3.00823 30.2953 2.5625H29.0953ZM28.9619 3.04042C28.9314 3.0801 28.8971 3.11094 28.7812 3.11094V4.31094C29.2279 4.31094 29.6311 4.13865 29.9131 3.77208L28.9619 3.04042ZM28.7812 3.11094C28.5403 3.11094 28.3805 3.0275 28.2425 2.82924L27.2575 3.51451C27.6195 4.035 28.1472 4.31094 28.7812 4.31094V3.11094ZM28.2425 2.82924C28.0699 2.58106 27.975 2.28174 27.975 1.90625H26.775C26.775 2.49951 26.9301 3.04394 27.2575 3.51451L28.2425 2.82924ZM27.975 1.90625C27.975 1.63825 28.0305 1.49794 28.0793 1.42746L27.0926 0.744411C26.8602 1.08019 26.775 1.48675 26.775 1.90625H27.975ZM28.0742 1.43468C28.1194 1.37135 28.1497 1.35781 28.2188 1.35781V0.157812C27.7566 0.157812 27.365 0.363028 27.0977 0.737195L28.0742 1.43468ZM38.0109 7.625L37.55 7.24089L37.4087 7.41041L37.411 7.63106L38.0109 7.625ZM38.1047 16.9062L38.387 17.4357L38.7083 17.2643L38.7047 16.9002L38.1047 16.9062ZM36.4172 16.9766L35.8179 16.948L35.7945 17.4393L36.2717 17.5586L36.4172 16.9766ZM36.6984 4.74219L36.8286 4.15648L36.1544 4.00666L36.1003 4.69514L36.6984 4.74219ZM37.7531 4.97656L38.3523 4.94447L38.3279 4.48965L37.8833 4.39085L37.7531 4.97656ZM37.8234 6.28906L37.2243 6.32116L37.299 7.71604L38.2592 6.70149L37.8234 6.28906ZM42.9328 5.67969L42.4978 6.09294L42.5084 6.10409L42.5196 6.11469L42.9328 5.67969ZM44.0578 9.03125L43.4631 9.11055L43.4633 9.11187L44.0578 9.03125ZM44.3156 12.2891L43.716 12.3115L43.7164 12.3194L44.3156 12.2891ZM44.4328 16.9766L44.6226 17.5458L45.0364 17.4078L45.0328 16.9716L44.4328 16.9766ZM42.5813 16.8125L41.9992 16.958L42.0697 17.2403L42.335 17.3597L42.5813 16.8125ZM42.5109 13.9062L41.9113 13.8836L41.9111 13.8947L42.5109 13.9062ZM42.4641 10.0156L41.8661 10.0655L41.8668 10.0737L41.8677 10.0819L42.4641 10.0156ZM42.1594 8.35156L41.5783 8.50099L41.5803 8.50872L41.5825 8.5164L42.1594 8.35156ZM41.4797 7.08594L41.0554 7.5102L41.0609 7.51564L41.0664 7.52094L41.4797 7.08594ZM39.1359 6.75781L38.9832 6.17751L38.9754 6.1797L39.1359 6.75781ZM38.5266 7.03906L38.1315 6.58752L38.1164 6.60067L38.1023 6.6148L38.5266 7.03906ZM37.411 7.63106L37.5047 16.9123L38.7047 16.9002L38.6109 7.61894L37.411 7.63106ZM37.8223 16.3768C37.693 16.4458 37.5134 16.4937 37.2609 16.4937V17.6938C37.6647 17.6938 38.0476 17.6167 38.387 17.4357L37.8223 16.3768ZM37.2609 16.4937C37.0717 16.4937 36.8405 16.4639 36.5627 16.3945L36.2717 17.5586C36.6189 17.6454 36.9502 17.6938 37.2609 17.6938V16.4937ZM37.0165 17.0051C37.0641 16.0061 37.0953 14.056 37.1109 11.1673L35.9109 11.1608C35.8953 14.0533 35.864 15.9783 35.8179 16.948L37.0165 17.0051ZM37.1109 11.1673C37.1265 8.2793 37.189 6.15688 37.2966 4.78923L36.1003 4.69514C35.9891 6.10875 35.9266 8.26757 35.9109 11.1608L37.1109 11.1673ZM36.5683 5.3279L37.623 5.56227L37.8833 4.39085L36.8286 4.15648L36.5683 5.3279ZM37.154 5.00866L37.2243 6.32116L38.4226 6.25697L38.3523 4.94447L37.154 5.00866ZM38.2592 6.70149C38.9887 5.93071 39.7898 5.57656 40.6828 5.57656V4.37656C39.4196 4.37656 38.3144 4.89741 37.3877 5.87663L38.2592 6.70149ZM40.6828 5.57656C41.208 5.57656 41.593 5.61472 41.8563 5.67743L42.1343 4.51007C41.7414 4.41653 41.2514 4.37656 40.6828 4.37656V5.57656ZM41.8563 5.67743C42.0438 5.72206 42.2589 5.84149 42.4978 6.09294L43.3678 5.26644C43.0129 4.89288 42.6031 4.62169 42.1343 4.51007L41.8563 5.67743ZM42.5196 6.11469C42.7436 6.32752 42.931 6.63062 43.0633 7.05397L44.2086 6.69603C44.0284 6.11938 43.747 5.62561 43.3461 5.24469L42.5196 6.11469ZM43.0633 7.05397C43.2043 7.50535 43.3396 8.18454 43.4631 9.11055L44.6526 8.95195C44.526 8.00296 44.3801 7.24465 44.2086 6.69603L43.0633 7.05397ZM43.4633 9.11187C43.5849 10.0092 43.6697 11.0748 43.716 12.3115L44.9152 12.2666C44.8678 11.0033 44.7807 9.89705 44.6524 8.95063L43.4633 9.11187ZM43.7164 12.3194C43.7783 13.5422 43.8172 15.0954 43.8328 16.9815L45.0328 16.9716C45.0171 15.0764 44.9779 13.5047 44.9149 12.2587L43.7164 12.3194ZM44.2431 16.4074C44.2633 16.4006 44.2504 16.4075 44.1758 16.414C44.1092 16.4198 44.0165 16.4234 43.8938 16.4234V17.6234C44.1501 17.6234 44.4237 17.6121 44.6226 17.5458L44.2431 16.4074ZM43.8938 16.4234C43.3684 16.4234 43.0284 16.3558 42.8275 16.2653L42.335 17.3597C42.7591 17.5505 43.2941 17.6234 43.8938 17.6234V16.4234ZM43.1633 16.667C43.1202 16.4944 43.0875 16.1447 43.0875 15.5703H41.8875C41.8875 16.1522 41.9173 16.6306 41.9992 16.958L43.1633 16.667ZM43.0875 15.5703C43.0875 15.28 43.0952 14.7308 43.1108 13.9178L41.9111 13.8947C41.8954 14.7067 41.8875 15.2668 41.8875 15.5703H43.0875ZM43.1105 13.9289C43.1419 13.0983 43.1578 12.4488 43.1578 11.9844H41.9578C41.9578 12.4262 41.9425 13.058 41.9114 13.8836L43.1105 13.9289ZM43.1578 11.9844C43.1578 11.2189 43.126 10.5396 43.0604 9.94937L41.8677 10.0819C41.9272 10.6166 41.9578 11.2499 41.9578 11.9844H43.1578ZM43.062 9.9658C43.0118 9.36407 42.9032 8.77088 42.7363 8.18673L41.5825 8.5164C41.7281 9.026 41.8225 9.54218 41.8661 10.0655L43.062 9.9658ZM42.7405 8.20214C42.5803 7.57934 42.3088 7.04597 41.8929 6.65094L41.0664 7.52094C41.2756 7.71966 41.4572 8.03004 41.5783 8.50099L42.7405 8.20214ZM41.904 6.66167C41.4851 6.24279 40.953 6.04062 40.3547 6.04062V7.24063C40.6626 7.24063 40.8806 7.33533 41.0554 7.5102L41.904 6.66167ZM40.3547 6.04062C39.8173 6.04062 39.3523 6.08045 38.9832 6.17757L39.2886 7.33806C39.5133 7.27893 39.8608 7.24063 40.3547 7.24063V6.04062ZM38.9754 6.1797C38.6636 6.26631 38.3574 6.3898 38.1315 6.58752L38.9217 7.49061C38.9457 7.46958 39.0458 7.40557 39.2965 7.33592L38.9754 6.1797ZM38.1023 6.6148C37.9718 6.74531 37.7846 6.95933 37.55 7.24089L38.4719 8.00911C38.706 7.72817 38.8626 7.55157 38.9508 7.46333L38.1023 6.6148ZM51.975 6.875L51.4164 7.09405L51.7035 7.82612L52.3338 7.35591L51.975 6.875ZM51.5062 5.67969L51.082 5.25542L50.8043 5.53312L50.9477 5.89874L51.5062 5.67969ZM53.0531 4.71875L53.2638 5.28068L53.276 5.27584L53.0531 4.71875ZM58.7484 13.9531L58.1496 13.9147L58.1492 13.9224L58.7484 13.9531ZM58.6547 16.6953L59.2357 16.8452L59.2547 16.7715V16.6953H58.6547ZM56.8266 15.8281L57.3958 16.0179L56.4093 15.397L56.8266 15.8281ZM51.5531 16.3438L51.1289 16.768L51.1343 16.7735L51.1399 16.7787L51.5531 16.3438ZM52.3266 10.2031L51.8966 9.78462L51.8937 9.78761L52.3266 10.2031ZM56.3812 8.46875L56.2357 9.05084L56.3074 9.06875H56.3812V8.46875ZM56.5922 8.49219L56.4745 9.08054L56.484 9.08243L56.4935 9.08402L56.5922 8.49219ZM56.8031 8.51562V9.11563H57.4456L57.4017 8.47469L56.8031 8.51562ZM56.8734 14.2109L57.2156 14.7038L57.4645 14.531L57.4732 14.2281L56.8734 14.2109ZM56.8734 9.75781L57.473 9.73561L57.4516 9.15781H56.8734V9.75781ZM56.6859 9.75781L56.6859 9.15775L56.6775 9.15787L56.6859 9.75781ZM53.6391 11L53.2423 10.5499L53.2385 10.5533L53.6391 11ZM52.725 15.1484L52.3007 15.5727L52.3062 15.5781L52.3117 15.5834L52.725 15.1484ZM52.5336 6.65595L52.0648 5.46063L50.9477 5.89874L51.4164 7.09405L52.5336 6.65595ZM51.9305 6.10395C52.2672 5.7673 52.7061 5.48968 53.2638 5.28055L52.8424 4.15695C52.1501 4.41657 51.5578 4.77958 51.082 5.25542L51.9305 6.10395ZM53.276 5.27584C53.8375 5.05122 54.3792 4.94375 54.9047 4.94375V3.74375C54.2114 3.74375 53.5187 3.88628 52.8303 4.16166L53.276 5.27584ZM54.9047 4.94375C56.0114 4.94375 56.8034 5.40037 57.3561 6.35524C57.9376 7.36 58.2656 8.94447 58.2656 11.1875H59.4656C59.4656 8.86803 59.1335 7.03063 58.3947 5.75414C57.627 4.42776 56.4386 3.74375 54.9047 3.74375V4.94375ZM58.2656 11.1875C58.2656 11.7928 58.2276 12.6992 58.1497 13.9147L59.3472 13.9915C59.4255 12.7696 59.4656 11.8322 59.4656 11.1875H58.2656ZM58.1492 13.9224C58.0866 15.1434 58.0547 16.07 58.0547 16.6953H59.2547C59.2547 16.1019 59.2853 15.2003 59.3476 13.9839L58.1492 13.9224ZM58.0737 16.5454C58.0264 16.7286 57.9732 16.7978 57.955 16.816C57.9483 16.8227 57.9477 16.8215 57.9516 16.8199C57.955 16.8185 57.9495 16.8219 57.9281 16.8219V18.0219C58.2582 18.0219 58.5639 17.9041 58.8036 17.6645C59.0276 17.4405 59.1579 17.1464 59.2357 16.8452L58.0737 16.5454ZM57.9281 16.8219C57.8755 16.8219 57.7729 16.8047 57.6156 16.6159L56.6938 17.3841C57.0052 17.7578 57.4182 18.0219 57.9281 18.0219V16.8219ZM57.6156 16.6159C57.4648 16.4349 57.4031 16.2563 57.4031 16.0625H56.2031C56.2031 16.5562 56.3758 17.0026 56.6938 17.3841L57.6156 16.6159ZM57.4031 16.0625C57.4031 16.0207 57.4047 15.9948 57.406 15.9816C57.4066 15.9753 57.4069 15.9751 57.406 15.9797C57.4053 15.9837 57.4025 15.9976 57.3958 16.0179L56.2574 15.6384C56.2086 15.7846 56.2031 15.9476 56.2031 16.0625H57.4031ZM56.4093 15.397C55.525 16.2528 54.6364 16.6344 53.7328 16.6344V17.8344C55.0167 17.8344 56.1906 17.2785 57.2438 16.2593L56.4093 15.397ZM53.7328 16.6344C53.0653 16.6344 52.4849 16.4014 51.9664 15.9088L51.1399 16.7787C51.8713 17.4736 52.744 17.8344 53.7328 17.8344V16.6344ZM51.9774 15.9195C51.4802 15.4223 51.2391 14.8404 51.2391 14.1406H50.0391C50.0391 15.1596 50.4073 16.0465 51.1289 16.768L51.9774 15.9195ZM51.2391 14.1406C51.2391 12.8612 51.7279 11.6931 52.7594 10.6186L51.8937 9.78761C50.6752 11.0569 50.0391 12.5138 50.0391 14.1406H51.2391ZM52.7565 10.6216C53.8012 9.54834 54.941 9.04531 56.1937 9.04531V7.84531C54.5715 7.84531 53.1332 8.51416 51.8966 9.78463L52.7565 10.6216ZM56.1937 9.04531C56.2057 9.04531 56.2193 9.04674 56.2357 9.05084L56.5268 7.88666C56.4181 7.85951 56.3068 7.84531 56.1937 7.84531V9.04531ZM56.3812 9.06875C56.3952 9.06875 56.4251 9.07066 56.4745 9.08054L56.7099 7.90384C56.603 7.88246 56.4923 7.86875 56.3812 7.86875V9.06875ZM56.4935 9.08402C56.5939 9.10075 56.7045 9.11563 56.8031 9.11563V7.91562C56.8099 7.91562 56.8045 7.91599 56.7815 7.91344C56.7601 7.91106 56.7303 7.90694 56.6908 7.90035L56.4935 9.08402ZM57.4017 8.47469C57.3353 7.50318 57.105 6.67797 56.6341 6.08564C56.1404 5.46453 55.442 5.17344 54.6234 5.17344V6.37344C55.133 6.37344 55.4619 6.53937 55.6948 6.83233C55.9505 7.15406 56.1459 7.69994 56.2045 8.55656L57.4017 8.47469ZM54.6234 5.17344C53.6577 5.17344 52.649 5.62362 51.6162 6.39409L52.3338 7.35591C53.2698 6.65763 54.0266 6.37344 54.6234 6.37344V5.17344ZM57.4732 14.2281C57.5045 13.1329 57.5203 12.2979 57.5203 11.7266H56.3203C56.3203 12.2803 56.3049 13.1015 56.2737 14.1938L57.4732 14.2281ZM57.5203 11.7266C57.5203 11.2468 57.5044 10.5819 57.473 9.73561L56.2738 9.78002C56.305 10.6212 56.3203 11.2688 56.3203 11.7266H57.5203ZM56.8734 9.15781H56.6859V10.3578H56.8734V9.15781ZM56.6775 9.15787C55.4093 9.17573 54.2592 9.65363 53.2423 10.5499L54.0358 11.4501C54.8626 10.7214 55.7438 10.3711 56.6944 10.3578L56.6775 9.15787ZM53.2385 10.5533C52.2129 11.4728 51.6797 12.6165 51.6797 13.9531H52.8797C52.8797 12.9773 53.2527 12.1522 54.0396 11.4467L53.2385 10.5533ZM51.6797 13.9531C51.6797 14.5797 51.8702 15.1422 52.3007 15.5727L53.1493 14.7242C52.986 14.5609 52.8797 14.3266 52.8797 13.9531H51.6797ZM52.3117 15.5834C52.7376 15.988 53.2613 16.1938 53.85 16.1938V14.9937C53.5637 14.9937 53.3374 14.9026 53.1382 14.7134L52.3117 15.5834ZM53.85 16.1938C54.3167 16.1938 54.8312 16.0406 55.371 15.7937C55.9183 15.5434 56.5343 15.1767 57.2156 14.7038L56.5313 13.718C55.8845 14.167 55.3325 14.4918 54.8719 14.7024C54.4039 14.9164 54.0708 14.9937 53.85 14.9937V16.1938ZM6.56953 34.1953L6.62923 33.5983L5.9788 33.5332L5.96959 34.1869L6.56953 34.1953ZM7.97578 34.3359L8.57292 34.2774L8.52492 33.7879L8.03548 33.7389L7.97578 34.3359ZM8.65547 49.1016L8.05573 49.1192L8.07387 49.7374L8.69123 49.7005L8.65547 49.1016ZM16.507 48.9375L17.0728 48.7378L16.9242 48.3166L16.478 48.3382L16.507 48.9375ZM16.6945 50.0625L16.0958 50.1011L16.0964 50.1107L16.0973 50.1203L16.6945 50.0625ZM16.8352 51.1406L16.7986 51.7395L17.5763 51.787L17.4235 51.023L16.8352 51.1406ZM6.40547 50.9531L5.80581 50.9329L5.78486 51.5531H6.40547V50.9531ZM6.52266 41.6719L5.92266 41.6695V41.6719H6.52266ZM6.50983 34.7923L7.91608 34.933L8.03548 33.7389L6.62923 33.5983L6.50983 34.7923ZM7.37864 34.3945C7.61067 36.7611 7.83686 41.6621 8.05573 49.1192L9.25521 49.084C9.03658 41.6348 8.80965 36.692 8.57292 34.2774L7.37864 34.3945ZM8.69123 49.7005C9.7217 49.639 11.0368 49.6078 12.6398 49.6078V48.4078C11.0241 48.4078 9.68299 48.4391 8.61971 48.5026L8.69123 49.7005ZM12.6398 49.6078C14.2535 49.6078 15.5534 49.5843 16.536 49.5368L16.478 48.3382C15.5231 48.3844 14.2449 48.4078 12.6398 48.4078V49.6078ZM15.9412 49.1372C16.0081 49.3267 16.0659 49.6382 16.0958 50.1011L17.2933 50.0239C17.2607 49.5181 17.1935 49.0796 17.0728 48.7378L15.9412 49.1372ZM16.0973 50.1203C16.1446 50.6087 16.1937 50.9929 16.2468 51.2583L17.4235 51.023C17.3828 50.8196 17.3382 50.4851 17.2917 50.0047L16.0973 50.1203ZM16.8717 50.5417C14.808 50.4157 12.1853 50.3531 9.00703 50.3531V51.5531C12.1725 51.5531 14.7686 51.6155 16.7986 51.7395L16.8717 50.5417ZM9.00703 50.3531H6.40547V51.5531H9.00703V50.3531ZM7.00513 50.9734C7.08358 48.6512 7.12266 45.5498 7.12266 41.6719H5.92266C5.92266 45.544 5.88361 48.6301 5.80581 50.9329L7.00513 50.9734ZM7.12265 41.6743C7.13828 37.7985 7.1539 35.3095 7.16947 34.2038L5.96959 34.1869C5.95391 35.2999 5.93828 37.7953 5.92266 41.6695L7.12265 41.6743ZM29.557 39.2344L29.6676 38.6447L29.0275 38.5246L28.9602 39.1724L29.557 39.2344ZM30.682 39.4453H31.282V38.9474L30.7926 38.8556L30.682 39.4453ZM30.8695 45.0703L30.2702 45.0999L30.2705 45.1036L30.8695 45.0703ZM31.2445 50.9297L31.4674 51.4868L31.8777 51.3226L31.8426 50.8821L31.2445 50.9297ZM29.5102 51L28.9367 51.1765L29.0362 51.5L29.3646 51.5821L29.5102 51ZM29.3227 50.3906L29.8961 50.2142L29.6772 49.5028L29.0285 49.8677L29.3227 50.3906ZM24.7055 50.7656L24.3802 51.2699L24.3875 51.2744L24.7055 50.7656ZM23.5805 49.6172L23.0584 49.913L23.0628 49.9206L23.5805 49.6172ZM22.9477 47.9062L22.3626 48.0392L22.3632 48.0422L22.9477 47.9062ZM22.643 46.0547L22.0439 46.088L22.0444 46.097L22.0452 46.1059L22.643 46.0547ZM22.9711 38.6719L23.1013 38.0862L22.4729 37.9465L22.3777 38.5831L22.9711 38.6719ZM24.0258 38.9062L24.6127 38.7817L24.5326 38.4043L24.1559 38.3205L24.0258 38.9062ZM24.1195 42.375L23.5204 42.3417L23.5199 42.3528L24.1195 42.375ZM24.1664 46.2891L23.5701 46.3553L23.5711 46.3646L23.5724 46.3739L24.1664 46.2891ZM24.5648 47.9062L23.999 48.1059L24.0026 48.1161L24.0066 48.1262L24.5648 47.9062ZM29.2289 49.0547L29.448 49.6133L29.8072 49.4724L29.828 49.0871L29.2289 49.0547ZM29.3227 44.625L29.9226 44.6329L29.9226 44.6328L29.3227 44.625ZM29.4465 39.8241L30.5715 40.035L30.7926 38.8556L29.6676 38.6447L29.4465 39.8241ZM30.082 39.4453V39.6797H31.282V39.4453H30.082ZM30.082 39.6797C30.082 40.7585 30.1453 42.5685 30.2703 45.0999L31.4688 45.0407C31.3438 42.5096 31.282 40.7259 31.282 39.6797H30.082ZM30.2705 45.1036C30.4112 47.6364 30.5365 49.5951 30.6464 50.9773L31.8426 50.8821C31.7338 49.5143 31.6091 47.5667 31.4686 45.037L30.2705 45.1036ZM31.0217 50.3726C30.7664 50.4747 30.5454 50.5172 30.3539 50.5172V51.7172C30.7249 51.7172 31.0976 51.6347 31.4674 51.4868L31.0217 50.3726ZM30.3539 50.5172C30.1647 50.5172 29.9335 50.4874 29.6557 50.4179L29.3646 51.5821C29.7118 51.6689 30.0431 51.7172 30.3539 51.7172V50.5172ZM30.0836 50.8235L29.8961 50.2142L28.7492 50.5671L28.9367 51.1765L30.0836 50.8235ZM29.0285 49.8677C28.0949 50.3929 27.2426 50.6344 26.4633 50.6344V51.8344C27.4965 51.8344 28.5505 51.5134 29.6168 50.9136L29.0285 49.8677ZM26.4633 50.6344C25.8878 50.6344 25.4153 50.5017 25.0235 50.2568L24.3875 51.2744C24.9956 51.6545 25.695 51.8344 26.4633 51.8344V50.6344ZM25.0307 50.2614C24.6175 49.9948 24.3117 49.6782 24.0981 49.3138L23.0628 49.9206C23.3805 50.4625 23.8247 50.9114 24.3802 51.2698L25.0307 50.2614ZM24.1025 49.3214C23.8719 48.9144 23.6787 48.401 23.5321 47.7703L22.3632 48.0422C22.5291 48.7552 22.7578 49.3825 23.0585 49.913L24.1025 49.3214ZM23.5327 47.7733C23.381 47.1055 23.2847 46.5164 23.2408 46.0034L22.0452 46.1059C22.0949 46.6868 22.2018 47.332 22.3626 48.0392L23.5327 47.7733ZM23.242 46.0214C23.2115 45.4721 23.1961 44.8584 23.1961 44.1797H21.9961C21.9961 44.876 22.0119 45.5123 22.0439 46.088L23.242 46.0214ZM23.1961 44.1797C23.1961 42.2042 23.3196 40.3984 23.5645 38.7606L22.3777 38.5831C22.1226 40.2891 21.9961 42.1552 21.9961 44.1797H23.1961ZM22.8409 39.2576L23.8956 39.492L24.1559 38.3205L23.1013 38.0862L22.8409 39.2576ZM23.4388 39.0308C23.5383 39.4997 23.5898 40.0199 23.5898 40.5938H24.7898C24.7898 39.9489 24.732 39.3441 24.6127 38.7817L23.4388 39.0308ZM23.5898 40.5938C23.5898 40.919 23.5673 41.4977 23.5205 42.3417L24.7186 42.4083C24.7655 41.5648 24.7898 40.956 24.7898 40.5938H23.5898ZM23.5199 42.3528C23.4886 43.1985 23.4727 43.848 23.4727 44.2969H24.6727C24.6727 43.8707 24.6879 43.239 24.7191 42.3972L23.5199 42.3528ZM23.4727 44.2969C23.4727 45.0775 23.5045 45.7647 23.5701 46.3553L24.7627 46.2228C24.7034 45.6884 24.6727 45.0475 24.6727 44.2969H23.4727ZM23.5724 46.3739C23.6563 46.9607 23.7987 47.5382 23.999 48.1059L25.1306 47.7066C24.956 47.2118 24.8328 46.7112 24.7604 46.2042L23.5724 46.3739ZM24.0066 48.1262C24.2478 48.7384 24.6218 49.2379 25.1374 49.5949L25.8204 48.6082C25.5235 48.4027 25.2881 48.1053 25.1231 47.6863L24.0066 48.1262ZM25.1374 49.5949C25.6653 49.9603 26.2997 50.1234 27.0023 50.1234V48.9234C26.4862 48.9234 26.105 48.8053 25.8204 48.6082L25.1374 49.5949ZM27.0023 50.1234C27.7807 50.1234 28.5978 49.9467 29.448 49.6133L29.0099 48.4961C28.2663 48.7877 27.599 48.9234 27.0023 48.9234V50.1234ZM29.828 49.0871C29.8601 48.4939 29.8914 47.0031 29.9226 44.6329L28.7227 44.6171C28.6914 46.9969 28.6602 48.4592 28.6298 49.0223L29.828 49.0871ZM29.9226 44.6328C29.9538 42.2465 30.0317 40.4716 30.1538 39.2964L28.9602 39.1724C28.8323 40.4034 28.754 42.2223 28.7227 44.6172L29.9226 44.6328ZM46.4977 51L46.4846 51.5999L47.8815 51.6302L46.9416 50.5964L46.4977 51ZM44.3414 50.9531L43.9171 51.3774L44.0875 51.5477L44.3284 51.553L44.3414 50.9531ZM41.9508 48.1641L41.4756 48.5305L41.4806 48.5368L41.9508 48.1641ZM40.0523 45.7734L40.4995 45.3734L39.4523 44.203V45.7734H40.0523ZM40.0523 50.6016L40.627 50.774L40.6523 50.6896V50.6016H40.0523ZM38.4117 50.9766L38.0014 51.4143L38.0154 51.4275L38.0303 51.4397L38.4117 50.9766ZM37.943 50.1328L37.3432 50.1153L37.3413 50.1808L37.3536 50.2451L37.943 50.1328ZM38.107 34.0781L38.2321 33.4913L37.5349 33.3427L37.5075 34.0551L38.107 34.0781ZM39.5367 34.3828L40.1365 34.3678L40.1247 33.8946L39.6618 33.796L39.5367 34.3828ZM39.607 38.2266L39.0071 38.2362L39.0072 38.2411L39.607 38.2266ZM39.7242 42.5625L39.1245 42.5822L39.1618 43.7182L40.0788 43.0465L39.7242 42.5625ZM45.4195 38.3906L45.9808 38.1786L45.7018 37.4401L45.065 37.9066L45.4195 38.3906ZM45.818 39.4453L46.1706 39.9308L46.5411 39.6617L46.3793 39.2333L45.818 39.4453ZM40.5914 44.0156L40.1705 43.588L39.7546 43.9974L40.1523 44.4245L40.5914 44.0156ZM43.3805 47.3438L42.9152 47.7226L42.9189 47.727L43.3805 47.3438ZM46.5107 50.4001L44.3544 50.3533L44.3284 51.553L46.4846 51.5999L46.5107 50.4001ZM44.7657 50.5289C44.2129 49.9761 43.4334 49.0686 42.421 47.7913L41.4806 48.5368C42.4994 49.822 43.3137 50.7739 43.9171 51.3774L44.7657 50.5289ZM42.4259 47.7977C41.4312 46.5076 40.7831 45.6904 40.4995 45.3734L39.6052 46.1735C39.8528 46.4503 40.4704 47.2268 41.4756 48.5304L42.4259 47.7977ZM39.4523 45.7734V50.6016H40.6523V45.7734H39.4523ZM39.4776 50.4292C39.4289 50.5918 39.3747 50.6533 39.3513 50.6734C39.3373 50.6853 39.3115 50.7047 39.232 50.7047V51.9047C39.5588 51.9047 39.8728 51.8068 40.1323 51.5845C40.3823 51.3701 40.5352 51.0801 40.627 50.774L39.4776 50.4292ZM39.232 50.7047C39.119 50.7047 38.9762 50.6641 38.7931 50.5134L38.0303 51.4397C38.3785 51.7265 38.7825 51.9047 39.232 51.9047V50.7047ZM38.8221 50.5388C38.6621 50.3889 38.5705 50.2206 38.5324 50.0205L37.3536 50.2451C37.4405 50.7013 37.6613 51.0955 38.0014 51.4143L38.8221 50.5388ZM38.5427 50.1503C38.5899 48.5314 38.6133 45.8518 38.6133 42.1172H37.4133C37.4133 45.8513 37.3898 48.5155 37.3432 50.1153L38.5427 50.1503ZM38.6133 42.1172C38.6133 38.3833 38.6446 35.7136 38.7066 34.1012L37.5075 34.0551C37.4445 35.6926 37.4133 38.3824 37.4133 42.1172H38.6133ZM37.982 34.6649L39.4117 34.9696L39.6618 33.796L38.2321 33.4913L37.982 34.6649ZM38.9369 34.3978C38.9525 35.0197 38.9759 36.2982 39.0071 38.2362L40.207 38.2169C40.1757 36.2799 40.1522 34.9959 40.1365 34.3678L38.9369 34.3978ZM39.0072 38.2411C39.0541 40.1789 39.0932 41.6264 39.1245 42.5822L40.3239 42.5428C40.2927 41.5924 40.2537 40.1492 40.2069 38.2121L39.0072 38.2411ZM40.0788 43.0465L45.7741 38.8747L45.065 37.9066L39.3697 42.0785L40.0788 43.0465ZM44.8582 38.6027L45.2567 39.6574L46.3793 39.2333L45.9808 38.1786L44.8582 38.6027ZM45.4654 38.9598C43.9477 40.0621 42.1819 41.6081 40.1705 43.588L41.0123 44.4432C43.0009 42.4857 44.7195 40.9847 46.1706 39.9308L45.4654 38.9598ZM40.1523 44.4245C40.5577 44.8599 41.4737 45.9521 42.9152 47.7226L43.8458 46.9649C42.4122 45.2042 41.4689 44.0776 41.0305 43.6068L40.1523 44.4245ZM42.9189 47.727C44.3719 49.4769 45.4187 50.7051 46.0537 51.4036L46.9416 50.5964C46.3267 49.9199 45.2953 48.7106 43.8421 46.9605L42.9189 47.727ZM53.6414 48.6328L53.1614 48.9928L53.1699 49.0041L53.1788 49.0149L53.6414 48.6328ZM53.8289 50.7188L53.3571 50.348L53.3533 50.3529L53.8289 50.7188ZM52.118 50.4844L51.6254 50.827L51.6303 50.8341L51.6355 50.841L52.118 50.4844ZM51.9539 48.3984L51.4656 48.0497L51.4606 48.0569L51.9539 48.3984ZM52.5867 48.6703C52.7968 48.6703 52.979 48.7496 53.1614 48.9928L54.1214 48.2728C53.7413 47.766 53.2204 47.4703 52.5867 47.4703V48.6703ZM53.1788 49.0149C53.3863 49.2661 53.4867 49.5449 53.4867 49.875H54.6867C54.6867 49.2676 54.4902 48.7182 54.104 48.2507L53.1788 49.0149ZM53.4867 49.875C53.4867 50.1168 53.4279 50.258 53.3571 50.3481L54.3007 51.0894C54.5737 50.742 54.6867 50.3207 54.6867 49.875H53.4867ZM53.3533 50.3529C53.3228 50.3926 53.2885 50.4234 53.1727 50.4234V51.6234C53.6193 51.6234 54.0225 51.4511 54.3045 51.0846L53.3533 50.3529ZM53.1727 50.4234C52.9303 50.4234 52.7558 50.3379 52.6005 50.1277L51.6355 50.841C52.0114 51.3496 52.5401 51.6234 53.1727 51.6234V50.4234ZM52.6105 50.1417C52.4379 49.8936 52.343 49.5942 52.343 49.2188H51.143C51.143 49.812 51.2981 50.3564 51.6254 50.827L52.6105 50.1417ZM52.343 49.2188C52.343 48.9507 52.3984 48.8104 52.4472 48.74L51.4606 48.0569C51.2281 48.3927 51.143 48.7993 51.143 49.2188H52.343ZM52.4421 48.7472C52.4874 48.6838 52.5176 48.6703 52.5867 48.6703V47.4703C52.1246 47.4703 51.7329 47.6755 51.4657 48.0497L52.4421 48.7472Z" fill="white"/>
</svg>
