<?xml version="1.0" standalone="no"?>
<!DOCTYPE svg PUBLIC "-//W3C//DTD SVG 20010904//EN"
 "http://www.w3.org/TR/2001/REC-SVG-20010904/DTD/svg10.dtd">
<svg version="1.0" xmlns="http://www.w3.org/2000/svg"
 width="160.000000pt" height="160.000000pt" viewBox="0 0 160.000000 160.000000"
 preserveAspectRatio="xMidYMid meet">

<g transform="translate(0.000000,160.000000) scale(0.100000,-0.100000)"
fill="#658580" stroke="none">
<path d="M703 1589 c-258 -30 -495 -198 -613 -434 -59 -119 -82 -217 -82 -355
0 -189 59 -357 175 -500 153 -188 372 -292 617 -292 245 0 464 104 617 292
116 143 175 311 175 500 0 138 -23 236 -82 355 -149 298 -474 473 -807 434z
m463 -414 c31 -6 31 -6 37 -88 4 -45 7 -108 7 -139 0 -32 3 -58 6 -58 3 0 48
32 101 71 52 39 96 69 98 67 2 -2 10 -21 19 -43 16 -37 16 -40 -1 -52 -48 -36
-173 -147 -173 -155 0 -5 46 -63 103 -130 112 -132 132 -157 126 -161 -2 -2
-36 0 -76 3 l-71 5 -61 73 -61 73 0 -70 c0 -64 -2 -72 -25 -87 -21 -13 -31
-15 -50 -6 -51 23 -52 31 -47 385 4 297 6 327 21 323 9 -2 30 -7 47 -11z
m-808 -10 c3 -2 9 -100 14 -217 5 -117 12 -241 14 -275 l6 -63 147 0 148 0 7
-37 c3 -21 6 -50 6 -65 l0 -28 -223 7 c-122 3 -222 6 -223 7 0 0 1 156 4 345
l4 343 46 -6 c25 -3 48 -8 50 -11z m432 -172 c3 -3 5 -71 6 -151 1 -81 4 -162
8 -179 9 -39 49 -73 85 -73 54 0 56 5 61 204 3 101 8 187 11 190 3 4 24 3 45
-2 l39 -8 6 -145 c4 -80 10 -188 14 -241 l7 -97 -37 -7 c-20 -3 -46 -2 -58 3
-12 6 -31 7 -42 2 -11 -4 -43 -8 -71 -8 -67 -1 -111 28 -144 94 -24 48 -25 58
-25 225 0 96 4 183 8 193 5 15 14 17 44 11 21 -4 40 -9 43 -11z"/>
</g>
</svg>
